<?xml version="1.0" encoding="UTF-8"?> <svg xmlns="http://www.w3.org/2000/svg" width="924" height="490" viewBox="0 0 924 490" fill="none"><path d="M210.566 253.496C210.89 254.293 211.064 255.14 211.064 256.074C211.064 257.008 210.902 257.842 210.591 258.627C210.267 259.411 209.844 260.071 209.283 260.644C208.723 261.204 208.063 261.653 207.303 261.989C206.543 262.325 205.709 262.475 204.8 262.475C203.891 262.475 203.069 262.313 202.284 261.977C201.5 261.64 200.815 261.192 200.242 260.619C199.669 260.046 199.208 259.361 198.884 258.577C198.548 257.792 198.386 256.945 198.386 256.036C198.386 255.127 198.548 254.318 198.872 253.533C199.196 252.761 199.644 252.076 200.204 251.491C200.765 250.918 201.437 250.445 202.197 250.121C202.957 249.784 203.779 249.623 204.65 249.623C205.572 249.623 206.431 249.784 207.216 250.121C208 250.445 208.673 250.893 209.246 251.466C209.806 252.039 210.255 252.724 210.578 253.521L210.566 253.496Z" fill="url(#paint0_linear_502_500)"></path><path d="M232.335 246.546L232.297 246.646L227.279 260.918L222.21 246.646L222.173 246.546H217.353V265.513H220.865V251.291L225.822 265.513H228.698L233.655 251.291V265.513H237.167V246.546H232.347H232.335ZM240.803 246.546V246.646H244.315V246.546H240.803Z" fill="url(#paint1_linear_502_500)"></path><path d="M338.228 186.309L326.982 236.235H321.876L332.4 189.497L247.939 158.774V236.235H242.958V140.641H242.97L245.461 139.707L247.74 140.566V140.654H247.939V153.468L338.228 186.309Z" fill="white"></path><path d="M247.74 140.566L247.94 140.653H247.74V140.566Z" fill="url(#paint2_linear_502_500)"></path><path d="M242.958 274.904V340.609C213.119 327.234 197.913 308.578 190.366 295.104C185.858 287.059 183.479 279.86 182.246 274.916H242.958V274.904Z" fill="url(#paint3_linear_502_500)"></path><path d="M242.958 346.051V356.027C233.293 352.814 201.437 340.161 184.65 315.864C178.236 306.573 172.694 295.876 167.899 284.593C167.576 283.846 167.264 283.086 166.953 282.339C166.754 281.878 166.567 281.405 166.38 280.931C166.069 280.159 165.757 279.387 165.446 278.603C165.147 277.855 164.861 277.108 164.574 276.348C164.388 275.875 164.201 275.39 164.026 274.904H177.115C178.311 280.159 180.814 288.167 185.883 297.283C193.952 311.804 210.404 332.016 242.97 346.051H242.958Z" fill="url(#paint4_linear_502_500)"></path><path d="M332.4 189.497L321.876 236.235H247.939V158.773L332.4 189.497Z" fill="url(#paint5_linear_502_500)"></path><path d="M351.105 179.297C348.901 190.654 345.252 212.224 339 236.235H326.982L338.228 186.296L247.939 153.468V140.641L351.092 179.297H351.105Z" fill="url(#paint6_linear_502_500)"></path><path d="M242.958 274.904V340.609C213.119 327.234 197.913 308.578 190.366 295.104C185.858 287.059 183.479 279.86 182.246 274.916H242.958V274.904Z" fill="url(#paint7_linear_502_500)"></path><path d="M242.958 346.051V356.027C233.293 352.814 201.437 340.161 184.65 315.864C178.236 306.573 172.694 295.876 167.899 284.593C167.576 283.846 167.264 283.086 166.953 282.339C166.754 281.878 166.567 281.405 166.38 280.931C166.069 280.159 165.757 279.387 165.446 278.603C165.147 277.855 164.861 277.108 164.574 276.348C164.388 275.875 164.201 275.39 164.026 274.904H177.115C178.311 280.159 180.814 288.167 185.883 297.283C193.952 311.804 210.404 332.016 242.97 346.051H242.958Z" fill="url(#paint8_linear_502_500)"></path><path d="M332.4 189.497L321.876 236.235H247.939V158.773L332.4 189.497Z" fill="url(#paint9_linear_502_500)"></path><path d="M351.105 179.297C348.901 190.654 345.252 212.224 339 236.235H326.982L338.228 186.296L247.939 153.468V140.641L351.092 179.297H351.105Z" fill="url(#paint10_linear_502_500)"></path><path d="M368.117 251.751H341.08L343.508 239.833L344.243 236.246H242.97V140.652L139.817 179.308C142.021 190.679 145.67 212.248 151.922 236.246H145.657L146.392 239.833L148.821 251.751H122.817L139.306 268.24L122.967 284.591H167.937C167.613 283.844 167.302 283.085 166.99 282.337C166.791 281.877 166.604 281.403 166.418 280.93C166.106 280.158 165.795 279.386 165.484 278.601C165.185 277.854 164.898 277.107 164.612 276.347C164.425 275.874 164.238 275.388 164.051 274.903H247.976V356.026C248.138 355.963 248.313 355.901 248.499 355.839C249.434 355.515 250.542 355.116 251.812 354.656C252.236 354.494 252.684 354.319 253.157 354.145C254.776 353.51 256.582 352.775 258.55 351.928C259.147 351.667 259.758 351.393 260.38 351.106C261.103 350.783 261.837 350.446 262.585 350.098C263.207 349.799 263.842 349.5 264.49 349.189C264.814 349.039 265.138 348.877 265.461 348.715C265.785 348.553 266.109 348.391 266.445 348.217C268.749 347.059 271.165 345.764 273.618 344.344C273.967 344.145 274.328 343.933 274.677 343.734C276.084 342.912 277.516 342.028 278.949 341.119C279.297 340.894 279.646 340.67 279.995 340.434C280.543 340.085 281.078 339.724 281.614 339.363C282.162 339.001 282.697 338.628 283.233 338.254C283.307 338.204 283.382 338.142 283.469 338.092C283.93 337.769 284.391 337.445 284.839 337.108C286.383 336 287.903 334.842 289.422 333.621C290.107 333.074 290.792 332.513 291.465 331.94C291.564 331.866 291.651 331.778 291.751 331.704C292.274 331.255 292.785 330.807 293.295 330.346C293.333 330.321 293.37 330.284 293.407 330.247C293.918 329.786 294.416 329.337 294.914 328.852C295.773 328.067 296.608 327.258 297.442 326.423C297.766 326.087 298.102 325.751 298.426 325.415C299.385 324.418 300.332 323.397 301.241 322.338C301.589 321.952 301.926 321.541 302.262 321.143C302.598 320.732 302.922 320.333 303.258 319.922C303.669 319.412 304.08 318.889 304.466 318.378C304.79 317.967 305.089 317.544 305.388 317.12C305.687 316.697 305.985 316.286 306.284 315.85C308.738 312.301 311.067 308.54 313.271 304.617C313.906 303.496 314.529 302.363 315.126 301.217C315.45 300.619 315.762 300.022 316.073 299.411C316.359 298.863 316.646 298.315 316.932 297.743C317.318 296.995 317.692 296.236 318.066 295.464C318.377 294.828 318.676 294.193 318.987 293.558C319.236 293.048 319.473 292.537 319.709 292.026C319.934 291.553 320.145 291.08 320.369 290.607C320.394 290.544 320.432 290.495 320.444 290.42C320.718 289.822 320.992 289.224 321.266 288.614C321.341 288.465 321.403 288.315 321.465 288.166C321.839 287.331 322.2 286.497 322.561 285.65C322.723 285.301 322.873 284.928 323.022 284.567H367.992L351.653 268.215L368.142 251.726L368.117 251.751ZM338.029 251.751L333.931 271.914H328.004V271.926L155.944 271.914L151.847 251.751L149.294 239.235H340.569L338.016 251.751H338.029Z" fill="#1C3D77"></path><path d="M149.294 239.236L151.847 251.752L155.944 271.915H333.932L338.029 251.752L340.582 239.236H149.294ZM213.841 259.897C213.343 261.092 212.646 262.139 211.774 263.01C210.902 263.895 209.868 264.592 208.673 265.09C207.49 265.588 206.195 265.837 204.812 265.837C203.43 265.837 202.122 265.588 200.914 265.09C199.694 264.579 198.648 263.895 197.739 263.01C196.842 262.139 196.12 261.092 195.609 259.897C195.086 258.701 194.824 257.419 194.824 256.049C194.824 254.679 195.086 253.371 195.597 252.176C196.107 250.98 196.817 249.934 197.714 249.062C198.61 248.178 199.669 247.481 200.902 246.982C201.201 246.858 201.5 246.746 201.811 246.659C202.77 246.372 203.791 246.223 204.862 246.223C205.871 246.223 206.842 246.372 207.751 246.659C208.063 246.758 208.362 246.87 208.66 246.995C209.844 247.506 210.865 248.203 211.749 249.1C212.633 249.984 213.331 251.03 213.829 252.213C214.339 253.409 214.588 254.679 214.588 256.024C214.588 257.369 214.339 258.701 213.829 259.897H213.841ZM237.154 265.514H233.642V251.291L228.686 265.514H225.809L220.853 251.291V265.514H217.341V246.547H222.16L222.198 246.646L227.266 260.918L232.285 246.646L232.322 246.547H237.142V265.514H237.154ZM254.614 265.514H251.102V257.556H244.328V265.514H240.816V246.547H244.328V254.193H251.102V246.547H254.614V265.514ZM273.544 265.514H270.057V252.375L266.184 258.564L261.825 265.514H258.263V246.547H261.75V259.685L262.46 258.552L269.982 246.534H273.544V265.501V265.514ZM280.344 258.515C280.344 258.515 280.356 258.552 280.368 258.564C280.705 259.337 281.153 259.997 281.713 260.569C282.299 261.142 282.971 261.616 283.743 261.952C284.516 262.288 285.338 262.462 286.209 262.462C287.081 262.462 287.928 262.288 288.65 261.952C289.372 261.616 290.12 261.043 290.904 260.233H295.039C294.665 261.105 294.18 261.877 293.594 262.574C292.996 263.272 292.324 263.857 291.577 264.343C290.83 264.829 289.995 265.202 289.098 265.451C288.202 265.7 287.255 265.837 286.296 265.837C284.902 265.837 283.606 265.588 282.398 265.065C281.178 264.555 280.132 263.845 279.223 262.961C278.326 262.076 277.616 261.018 277.093 259.822C276.906 259.411 276.769 258.988 276.657 258.552C276.433 257.73 276.321 256.858 276.321 255.962C276.321 254.617 276.57 253.359 277.093 252.176C277.604 250.98 278.314 249.946 279.185 249.075C280.07 248.191 281.103 247.493 282.299 246.982C283.482 246.472 284.74 246.21 286.085 246.21C288.102 246.21 289.896 246.721 291.465 247.717C293.046 248.726 294.242 250.146 295.064 251.976H291.128C290.481 251.142 289.771 250.532 288.986 250.158C288.214 249.785 287.268 249.598 286.147 249.598C285.263 249.598 284.428 249.76 283.656 250.096C282.884 250.42 282.224 250.868 281.664 251.441C281.103 252.014 280.655 252.686 280.344 253.471C280.02 254.255 279.87 255.09 279.87 255.999C279.87 256.908 280.032 257.73 280.381 258.515H280.344Z" fill="white"></path><path d="M222.21 246.658H217.353V246.546H222.173L222.21 246.658Z" fill="#1C3D77"></path><path d="M237.154 246.546V246.658H232.297L232.335 246.546H237.154Z" fill="#1C3D77"></path><path d="M244.315 246.546H240.803V246.646H244.315V246.546Z" fill="#1C3D77"></path><path d="M247.939 274.903V356.026C247.491 356.175 247.092 356.3 246.744 356.399C246.631 356.437 246.519 356.474 246.42 356.499C245.996 356.624 245.685 356.711 245.461 356.773C245.012 356.661 244.153 356.399 242.97 356.013V346.038C210.416 332.003 193.965 311.791 185.883 297.27C180.814 288.154 178.323 280.158 177.115 274.89H182.246C183.479 279.834 185.858 287.033 190.366 295.078C197.913 308.553 213.131 327.221 242.958 340.583V274.878H247.939V274.903Z" fill="white"></path><path d="M244.315 246.546H242.958V246.646H244.315V246.546Z" fill="white"></path><path d="M210.565 253.496C210.889 254.293 211.064 255.14 211.064 256.074C211.064 257.008 210.902 257.842 210.59 258.627C210.267 259.412 209.843 260.072 209.283 260.645C208.722 261.205 208.062 261.653 207.303 261.99C206.543 262.326 205.708 262.475 204.799 262.475C203.89 262.475 203.068 262.313 202.284 261.977C201.499 261.641 200.814 261.192 200.241 260.62C199.668 260.047 199.208 259.362 198.884 258.577C198.548 257.793 198.386 256.946 198.386 256.037C198.386 255.128 198.548 254.318 198.871 253.533C199.195 252.761 199.644 252.076 200.204 251.491C200.764 250.918 201.437 250.445 202.197 250.121C202.956 249.785 203.778 249.623 204.65 249.623C205.571 249.623 206.431 249.785 207.215 250.121C208 250.445 208.672 250.893 209.245 251.466C209.806 252.039 210.254 252.724 210.578 253.521L210.565 253.496Z" fill="white"></path><path d="M232.334 246.546L232.297 246.646L227.278 260.918L222.209 246.646L222.172 246.546H217.353V265.513H220.864V251.291L225.821 265.513H228.698L233.654 251.291V265.513H237.166V246.546H232.347H232.334ZM240.803 246.546V246.646H244.315V246.546H240.803Z" fill="white"></path><path d="M213.841 252.214C213.343 251.031 212.645 249.985 211.761 249.1C210.877 248.216 209.856 247.506 208.672 246.996C208.374 246.871 208.075 246.759 207.763 246.66C206.854 246.373 205.883 246.224 204.874 246.224C203.803 246.224 202.782 246.373 201.823 246.66C201.512 246.759 201.213 246.859 200.914 246.983C199.693 247.481 198.622 248.179 197.726 249.063C196.829 249.947 196.119 250.981 195.609 252.176C195.098 253.372 194.836 254.667 194.836 256.05C194.836 257.432 195.098 258.702 195.621 259.898C196.144 261.093 196.854 262.139 197.751 263.011C198.647 263.895 199.706 264.593 200.926 265.091C202.147 265.589 203.442 265.838 204.824 265.838C206.207 265.838 207.489 265.589 208.685 265.091C209.88 264.58 210.902 263.895 211.786 263.011C212.658 262.139 213.355 261.093 213.853 259.898C214.364 258.702 214.613 257.407 214.613 256.025C214.613 254.642 214.364 253.409 213.853 252.214H213.841ZM210.578 258.627C210.254 259.412 209.831 260.072 209.27 260.645C208.71 261.205 208.05 261.654 207.29 261.99C206.53 262.326 205.696 262.476 204.787 262.476C203.878 262.476 203.056 262.314 202.271 261.977C201.487 261.641 200.802 261.193 200.229 260.62C199.656 260.047 199.195 259.362 198.871 258.578C198.535 257.793 198.373 256.946 198.373 256.037C198.373 255.128 198.535 254.318 198.859 253.534C199.183 252.762 199.631 252.077 200.191 251.492C200.752 250.919 201.424 250.445 202.184 250.122C202.944 249.785 203.766 249.623 204.637 249.623C205.559 249.623 206.418 249.785 207.203 250.122C207.987 250.445 208.66 250.894 209.233 251.467C209.793 252.039 210.242 252.724 210.565 253.521C210.889 254.318 211.064 255.165 211.064 256.099C211.064 257.033 210.902 257.868 210.59 258.652L210.578 258.627Z" fill="#1C3D77"></path><path d="M232.334 246.547L232.297 246.647L227.278 260.918L222.209 246.647L222.172 246.547H217.353V265.514H220.864V251.292L225.821 265.514H228.698L233.654 251.292V265.514H237.166V246.547H232.347H232.334Z" fill="#1C3D77"></path><path d="M240.803 246.547V246.647H244.315V246.547H240.803Z" fill="#1C3D77"></path><path d="M254.614 246.547V265.514H251.09V257.568H244.315V265.514H240.803V246.659H244.315V254.206H251.09V246.547H254.614Z" fill="#1C3D77"></path><path d="M273.544 246.547V265.514H270.057V252.375L266.184 258.565L261.825 265.514H258.263V246.547H261.75V259.698L262.46 258.565L269.982 246.547H273.544Z" fill="#1C3D77"></path><path d="M290.904 260.234H295.039C294.665 261.105 294.179 261.878 293.594 262.575C292.996 263.272 292.324 263.858 291.577 264.343C290.829 264.829 289.995 265.203 289.098 265.452C288.202 265.701 287.255 265.838 286.296 265.838C284.901 265.838 283.606 265.589 282.398 265.066C281.178 264.555 280.132 263.845 279.223 262.961C278.326 262.077 277.616 261.018 277.093 259.823C276.906 259.412 276.769 258.988 276.657 258.552C276.433 257.731 276.321 256.859 276.321 255.962C276.321 254.617 276.57 253.359 277.093 252.176C277.604 250.981 278.313 249.947 279.185 249.075C280.069 248.191 281.103 247.494 282.299 246.983C283.482 246.472 284.739 246.211 286.084 246.211C288.102 246.211 289.895 246.722 291.464 247.718C293.046 248.727 294.242 250.146 295.064 251.977H291.128C290.481 251.143 289.771 250.532 288.986 250.159C288.214 249.785 287.268 249.598 286.147 249.598C285.263 249.598 284.428 249.76 283.656 250.096C282.884 250.42 282.224 250.869 281.663 251.441C281.103 252.014 280.655 252.687 280.343 253.471C280.02 254.256 279.87 255.09 279.87 255.999C279.87 256.909 280.032 257.731 280.381 258.515C280.381 258.528 280.393 258.552 280.406 258.565C280.742 259.337 281.19 259.997 281.751 260.57C282.336 261.143 283.008 261.616 283.781 261.952C284.553 262.289 285.375 262.463 286.246 262.463C287.118 262.463 287.965 262.289 288.687 261.952C289.41 261.616 290.157 261.043 290.941 260.234H290.904Z" fill="#1C3D77"></path><path d="M245.448 60.9375C143.926 60.9375 61.3335 143.53 61.3335 245.052C61.3335 346.574 143.926 429.167 245.448 429.167C346.97 429.167 429.563 346.574 429.563 245.052C429.563 143.53 346.97 60.9375 245.448 60.9375ZM245.448 396.426C161.847 396.426 94.0741 328.653 94.0741 245.052C94.0741 161.451 161.834 93.6657 245.448 93.6657C329.062 93.6657 396.835 161.451 396.835 245.052C396.835 328.653 329.049 396.426 245.448 396.426Z" fill="url(#paint11_linear_502_500)"></path><path d="M77.2619 191.702L82.4675 197.63L74.6964 199.423L74.0488 201.378L84.9458 205.002L85.556 203.147L77.9842 200.656L84.3853 199.162L84.8586 197.742L80.6617 192.848L88.1463 195.376L88.8064 193.395L77.9095 189.771L77.2619 191.702Z" fill="white"></path><path d="M89.0432 187.903L86.0917 186.658L87.9223 182.324L86.3158 181.639L84.4851 185.985L81.9197 184.902L84.0493 179.833L82.3307 179.111L79.3667 186.147L89.9647 190.593L92.9412 183.507L91.1977 182.772L89.0432 187.903Z" fill="white"></path><path d="M90.3258 163.121L89.205 165.288L91.7829 170.132L91.3968 170.892L87.3743 168.812L86.4029 170.705L90.413 172.785L90.0145 173.544L84.6221 174.13L83.4639 176.359L90.1141 175.587L93.4019 182.162L94.5227 179.995L91.621 174.366L92.0195 173.619L96.59 175.985L97.5738 174.092L92.9909 171.714L93.377 170.979L99.6162 170.169L100.774 167.928L93.4019 168.986L90.3258 163.121Z" fill="white"></path><path d="M105.307 157.28L97.2748 152.149L92.7915 159.173L95.6558 161.003C96.6521 161.639 97.4492 162.199 98.0594 162.66C98.6696 163.133 99.118 163.569 99.4044 163.955C99.6908 164.341 99.8527 164.74 99.8776 165.126C99.9025 165.512 99.8278 165.948 99.6659 166.421L103.639 168.949L104.722 167.243L102.269 165.674L106.03 159.783L106.877 158.463L109.33 160.032L110.413 158.326L106.316 155.711L105.332 157.255L105.307 157.28ZM101.372 163.432C101.322 163.332 101.26 163.233 101.198 163.133C100.837 162.56 100.289 161.962 99.5538 161.34C98.8191 160.717 97.885 160.032 96.7269 159.297L95.5064 158.525L97.7481 155.013L104.137 159.086L101.36 163.444L101.372 163.432Z" fill="white"></path><path d="M107.885 150.841C108.035 151.476 108.072 152.086 107.998 152.684C107.923 153.282 107.748 153.892 107.462 154.515L109.504 155.038C109.766 154.502 109.953 153.967 110.065 153.431C110.177 152.896 110.214 152.335 110.164 151.75C110.115 151.165 109.99 150.542 109.778 149.882C109.567 149.222 109.255 148.5 108.869 147.715L105.457 140.903L103.987 142.883L106.565 147.815L100.986 146.93L99.4419 149.01L107.686 150.156C107.773 150.393 107.848 150.629 107.898 150.853L107.885 150.841Z" fill="white"></path><path d="M111.734 133.481L115.121 136.382L111.721 140.343L108.334 137.441L106.952 139.06L115.669 146.532L117.052 144.913L113.203 141.613L116.603 137.653L120.451 140.953L121.846 139.334L113.116 131.862L111.734 133.481Z" fill="white"></path><path d="M117.923 126.83L122.991 138.039L124.635 136.382L123.452 133.879L126.703 130.591L129.243 131.725L130.937 130.019L119.604 125.137L117.935 126.83H117.923ZM125.021 129.707L122.518 132.235L120.438 127.715L125.021 129.707Z" fill="white"></path><path d="M133.403 117.316C132.904 116.743 132.332 116.382 131.696 116.22C131.061 116.058 130.414 116.083 129.741 116.282C129.069 116.494 128.434 116.868 127.811 117.416L124.585 120.267L132.207 128.86L133.801 127.441L130.987 124.265L132.581 122.858C133.266 122.248 133.751 121.625 134.05 120.99C134.337 120.355 134.436 119.72 134.337 119.097C134.237 118.474 133.926 117.876 133.415 117.291L133.403 117.316ZM132.294 120.13C132.195 120.604 131.896 121.052 131.385 121.513L129.804 122.92L127.437 120.243L129.031 118.823C129.517 118.387 130.015 118.15 130.513 118.125C131.012 118.088 131.46 118.3 131.858 118.748C132.257 119.196 132.406 119.657 132.307 120.118L132.294 120.13Z" fill="white"></path><path d="M145.819 110.342C145.309 109.682 144.711 109.146 144.026 108.76C143.341 108.374 142.619 108.125 141.846 108.025C141.074 107.926 140.315 107.976 139.543 108.175C138.77 108.374 138.036 108.748 137.351 109.271C136.666 109.794 136.118 110.404 135.707 111.101C135.296 111.786 135.047 112.521 134.935 113.281C134.823 114.041 134.872 114.8 135.084 115.56C135.283 116.32 135.645 117.042 136.168 117.714C136.678 118.387 137.276 118.922 137.961 119.321C138.646 119.719 139.368 119.956 140.128 120.056C140.888 120.155 141.66 120.093 142.432 119.894C143.204 119.694 143.939 119.321 144.624 118.785C145.309 118.262 145.857 117.652 146.255 116.967C146.654 116.282 146.915 115.547 147.015 114.788C147.114 114.028 147.077 113.256 146.878 112.496C146.678 111.737 146.317 111.014 145.807 110.342H145.819ZM144.922 114.663C144.86 115.149 144.698 115.61 144.437 116.046C144.175 116.481 143.839 116.855 143.403 117.191C142.83 117.64 142.208 117.901 141.548 117.988C140.888 118.075 140.24 117.988 139.617 117.727C138.995 117.465 138.434 117.004 137.936 116.369C137.562 115.884 137.313 115.398 137.164 114.887C137.014 114.377 136.977 113.891 137.052 113.393C137.114 112.907 137.276 112.446 137.525 112.011C137.787 111.575 138.123 111.201 138.559 110.865C139.132 110.429 139.754 110.155 140.414 110.068C141.074 109.981 141.722 110.068 142.357 110.329C142.992 110.603 143.553 111.052 144.038 111.687C144.399 112.16 144.661 112.658 144.798 113.169C144.947 113.679 144.985 114.177 144.91 114.663H144.922Z" fill="white"></path><path d="M158.011 106.892L152.83 98.8843L145.832 103.417L147.675 106.269C148.322 107.266 148.82 108.1 149.169 108.785C149.53 109.47 149.754 110.043 149.854 110.516C149.954 110.989 149.929 111.413 149.792 111.774C149.655 112.135 149.406 112.496 149.057 112.857L151.61 116.818L153.304 115.722L151.722 113.281L157.949 109.258L158.908 108.635L160.489 111.076L162.183 109.98L159.543 105.896L157.999 106.892H158.011ZM149.393 105.161L148.609 103.953L152.108 101.686L156.23 108.05L151.896 110.852C151.896 110.74 151.884 110.628 151.872 110.504C151.784 109.831 151.523 109.059 151.124 108.187C150.726 107.315 150.141 106.307 149.406 105.161H149.393Z" fill="white"></path><path d="M163.354 92.9438L165.483 96.8667L160.9 99.3574L158.771 95.4345L156.903 96.4557L162.37 106.556L164.25 105.534L161.834 101.076L166.417 98.5853L168.833 103.044L170.714 102.035L165.234 91.9351L163.354 92.9438Z" fill="white"></path><path d="M178.386 92.3717C177.838 92.023 177.203 91.8487 176.505 91.8362C175.808 91.8237 175.073 91.9981 174.326 92.3219L172.408 93.1687L170.702 89.2832L168.747 90.1425L173.379 100.653L177.203 98.9721C177.825 98.6982 178.348 98.3744 178.772 98.0257C179.195 97.6645 179.519 97.266 179.731 96.8426C179.942 96.4191 180.042 95.9584 180.042 95.4727C180.042 94.987 179.917 94.4764 179.681 93.9409C179.37 93.2435 178.946 92.7204 178.386 92.3717ZM177.751 96.2821C177.514 96.6931 177.078 97.0418 176.455 97.3158L174.587 98.1377L173.155 94.8749L175.036 94.0529C175.633 93.7914 176.181 93.7167 176.655 93.8412C177.14 93.9658 177.501 94.302 177.738 94.85C177.975 95.3979 177.987 95.8836 177.738 96.2946L177.751 96.2821Z" fill="white"></path><path d="M179.906 85.2341L177.957 86.0918L182.581 96.6016L184.53 95.744L179.906 85.2341Z" fill="white"></path><path d="M190.702 81.3995L188.236 90.7647L185.621 83.1555L183.616 83.8405L187.352 94.7125L189.307 94.04L191.773 84.6001L194.413 92.2716L196.418 91.5866L192.682 80.7271L190.702 81.3995Z" fill="white"></path><path d="M186.019 81.2249C186.555 81.3121 187.115 81.2498 187.713 81.0381C188.298 80.8389 188.771 80.54 189.145 80.1415C189.506 79.7429 189.743 79.2822 189.855 78.7716C189.967 78.261 189.905 77.7379 189.706 77.1899L188.062 77.7504C188.236 78.1862 188.261 78.5847 188.111 78.9335C187.962 79.2822 187.676 79.5312 187.265 79.6807C186.854 79.8301 186.468 79.8052 186.131 79.6184C185.795 79.4316 185.558 79.1078 185.421 78.6595L183.79 79.2199C183.964 79.7803 184.251 80.2286 184.637 80.5649C185.023 80.9011 185.496 81.1128 186.019 81.2V81.2249Z" fill="white"></path><path d="M211.537 79.3571C211.076 78.722 210.516 78.1989 209.856 77.788C209.196 77.377 208.474 77.1155 207.689 76.9785C206.904 76.8539 206.082 76.8788 205.248 77.0781C204.401 77.2774 203.654 77.6136 202.994 78.0744C202.346 78.5352 201.811 79.0956 201.4 79.7432C200.989 80.3908 200.727 81.1131 200.603 81.8852C200.478 82.6573 200.516 83.4668 200.702 84.3012C200.902 85.1231 201.226 85.8579 201.686 86.493C202.147 87.1282 202.708 87.6512 203.355 88.0498C204.015 88.4483 204.737 88.7098 205.522 88.8468C206.319 88.9713 207.129 88.934 207.975 88.7347C208.822 88.5354 209.557 88.1992 210.217 87.7384C210.865 87.2776 211.4 86.7172 211.799 86.0572C212.21 85.4096 212.471 84.6873 212.608 83.9151C212.745 83.1306 212.708 82.3335 212.509 81.5116C212.322 80.7021 211.985 79.9673 211.525 79.3322L211.537 79.3571ZM210.441 83.7034C210.366 84.2265 210.192 84.6997 209.943 85.1107C209.682 85.5341 209.345 85.8828 208.934 86.1693C208.523 86.4557 208.05 86.6674 207.527 86.7919C206.817 86.9538 206.145 86.9538 205.51 86.767C204.874 86.5802 204.314 86.2315 203.853 85.7334C203.392 85.2352 203.069 84.5876 202.882 83.8031C202.745 83.2177 202.708 82.6573 202.795 82.1343C202.869 81.6112 203.044 81.1504 203.293 80.727C203.554 80.3036 203.878 79.9549 204.289 79.6685C204.7 79.382 205.173 79.1703 205.709 79.0458C206.406 78.8839 207.079 78.8963 207.726 79.0831C208.361 79.2699 208.922 79.6186 209.383 80.1168C209.843 80.6149 210.18 81.2625 210.354 82.0471C210.491 82.6324 210.528 83.1804 210.441 83.7034Z" fill="white"></path><path d="M222.247 79.7562C221.413 79.3079 220.367 79.1834 219.121 79.3826L217.166 79.694L216.73 76.9168L221.948 76.0824L221.649 74.2393L214.327 75.4099L216.132 86.7552L220.18 86.1076C221.039 85.9706 221.761 85.7215 222.334 85.3604C222.907 84.9992 223.318 84.5384 223.567 83.9905C223.816 83.4425 223.891 82.8074 223.767 82.0975C223.592 80.9891 223.082 80.217 222.247 79.7687V79.7562ZM221.251 83.8286C220.94 84.1897 220.441 84.4139 219.756 84.526L217.976 84.8124L217.415 81.3129L219.283 81.014C219.918 80.9144 220.429 80.9891 220.84 81.2507C221.251 81.5122 221.488 81.9107 221.575 82.4587C221.662 83.0191 221.55 83.4799 221.238 83.8286H221.251Z" fill="white"></path><path d="M233.767 74.6499C233.356 74.1393 232.82 73.7781 232.148 73.5539C231.488 73.3298 230.74 73.2551 229.918 73.3298L225.634 73.7407L226.718 85.1732L228.847 84.9739L228.449 80.7397L230.566 80.5404C231.475 80.4533 232.235 80.2415 232.845 79.9053C233.455 79.5691 233.904 79.1083 234.19 78.5479C234.476 77.9874 234.576 77.3149 234.514 76.5428C234.439 75.7831 234.202 75.1605 233.791 74.6499H233.767ZM231.923 78.1618C231.575 78.4856 231.052 78.6724 230.367 78.7347L228.262 78.9339L227.926 75.3846L230.055 75.1854C230.703 75.1231 231.238 75.2227 231.662 75.4967C232.085 75.7582 232.322 76.1941 232.372 76.7919C232.422 77.3897 232.285 77.8504 231.923 78.1742V78.1618Z" fill="white"></path><path d="M239.583 72.6939L235.535 84.3131L237.876 84.2384L238.736 81.6107L243.356 81.4737L244.415 84.0391L246.818 83.9644L241.974 72.6191L239.595 72.6939H239.583ZM239.197 79.7924L240.803 75.085L242.758 79.6928L239.209 79.8049L239.197 79.7924Z" fill="white"></path><path d="M254.465 78.0497C254.776 77.9251 255.063 77.7383 255.337 77.4892C255.61 77.2402 255.822 76.9537 255.997 76.6299C256.171 76.3062 256.258 75.9699 256.271 75.6212C256.295 74.9861 256.146 74.4381 255.835 73.9773C255.523 73.5165 255.075 73.1429 254.477 72.8814C253.879 72.6199 253.157 72.4704 252.31 72.4455C251.501 72.4206 250.754 72.5078 250.031 72.732C249.309 72.9561 248.711 73.2675 248.188 73.6909L249.122 75.285C249.483 74.9861 249.907 74.7619 250.417 74.6C250.915 74.4381 251.439 74.3758 251.962 74.3883C252.435 74.4007 252.833 74.4755 253.17 74.6C253.493 74.7245 253.742 74.8989 253.904 75.1231C254.066 75.3472 254.141 75.6212 254.129 75.945C254.129 76.2688 254.029 76.5552 253.842 76.7794C253.668 77.0036 253.419 77.1779 253.095 77.29C252.771 77.4021 252.397 77.4519 251.962 77.4394L249.857 77.3647L249.807 79.046L252.074 79.1207C252.858 79.1456 253.431 79.3075 253.792 79.6064C254.153 79.9053 254.328 80.3162 254.303 80.8642C254.303 81.2129 254.178 81.5118 253.954 81.7733C253.73 82.0224 253.431 82.2216 253.045 82.3586C252.659 82.4956 252.198 82.5579 251.675 82.533C251.065 82.5081 250.492 82.396 249.944 82.1718C249.396 81.9601 248.935 81.6612 248.549 81.3125L247.516 82.9689C248.064 83.4047 248.686 83.7534 249.409 84.0025C250.131 84.2516 250.928 84.3886 251.812 84.4259C252.721 84.4508 253.531 84.3263 254.228 84.0399C254.926 83.7534 255.474 83.3425 255.872 82.8194C256.271 82.2964 256.482 81.6986 256.507 81.0385C256.532 80.3038 256.358 79.6811 255.984 79.1829C255.598 78.6848 255.1 78.3236 254.465 78.087V78.0497Z" fill="white"></path><path d="M269.496 75.5092C269.011 74.9114 268.413 74.4133 267.715 74.0397C267.018 73.6536 266.233 73.417 265.374 73.3298C264.515 73.2427 263.693 73.3049 262.921 73.5291C262.149 73.7533 261.464 74.102 260.866 74.5876C260.268 75.0733 259.782 75.6587 259.396 76.3436C259.023 77.041 258.786 77.8007 258.699 78.66C258.612 79.5068 258.674 80.3039 258.898 81.0511C259.122 81.8108 259.471 82.4833 259.969 83.081C260.455 83.6788 261.053 84.1645 261.763 84.5506C262.472 84.9366 263.257 85.1608 264.116 85.2604C264.976 85.3476 265.785 85.2853 266.557 85.0612C267.329 84.837 268.002 84.4883 268.612 84.0026C269.21 83.5169 269.708 82.9316 270.082 82.2466C270.455 81.5617 270.692 80.7896 270.791 79.9427C270.879 79.1083 270.804 78.3237 270.58 77.5641C270.356 76.8168 269.994 76.1319 269.509 75.5341L269.496 75.5092ZM268.562 79.6812C268.5 80.279 268.351 80.8145 268.101 81.2752C267.852 81.736 267.541 82.1346 267.167 82.4334C266.781 82.7448 266.358 82.9689 265.872 83.1059C265.387 83.2429 264.876 83.2803 264.34 83.2305C263.618 83.1557 262.983 82.9191 262.448 82.5331C261.912 82.147 261.501 81.6364 261.227 81.0137C260.953 80.391 260.866 79.6687 260.941 78.8717C261.003 78.2739 261.152 77.7384 261.401 77.2652C261.65 76.8044 261.962 76.4183 262.335 76.107C262.709 75.7956 263.145 75.5715 263.631 75.4345C264.116 75.2975 264.627 75.2601 265.175 75.3224C265.897 75.3971 266.52 75.6338 267.068 76.0198C267.616 76.4059 268.014 76.9165 268.288 77.5392C268.562 78.1618 268.662 78.8842 268.575 79.6812H268.562Z" fill="white"></path><path d="M281.277 79.9424C281.489 79.656 281.639 79.3447 281.701 78.996C281.875 78.0495 281.663 77.2774 281.078 76.6796C280.493 76.0694 279.646 75.6708 278.538 75.4716L274.49 74.7368L272.448 86.0447L276.645 86.8044C277.454 86.9538 278.176 86.9414 278.812 86.7795C279.459 86.6176 279.982 86.3187 280.381 85.8953C280.792 85.4719 281.053 84.9363 281.165 84.3012C281.29 83.5789 281.203 82.9313 280.904 82.3584C280.592 81.7856 280.157 81.3497 279.571 81.0384C279.883 80.9636 280.194 80.8391 280.493 80.6523C280.792 80.4655 281.053 80.2289 281.265 79.9424H281.277ZM279.023 83.8155C278.924 84.3759 278.675 84.7744 278.264 84.9862C277.865 85.2103 277.305 85.2477 276.607 85.1232L274.839 84.7994L275.462 81.3871L277.242 81.7109C277.952 81.8354 278.45 82.0845 278.737 82.4456C279.036 82.8068 279.123 83.2551 279.023 83.8155ZM279.609 78.8963C279.546 79.2326 279.409 79.5066 279.21 79.7307C279.011 79.9549 278.749 80.0919 278.426 80.1666C278.114 80.2413 277.753 80.2413 277.367 80.1666L275.723 79.8677L276.296 76.7169L277.902 77.0034C278.538 77.1155 278.998 77.3396 279.297 77.6634C279.596 77.9872 279.696 78.3982 279.609 78.8963Z" fill="white"></path><path d="M288.762 77.6509L281.676 87.7134L283.942 88.2863L285.499 85.9948L289.982 87.1281L290.294 89.8928L292.623 90.4781L291.078 78.2362L288.774 77.6509H288.762ZM286.446 84.3509L289.285 80.2661L289.895 85.2227L286.446 84.3509Z" fill="white"></path><path d="M304.13 82.1214L296.035 79.5435L295.437 81.4115L298.463 82.3704L295.574 91.4491L297.616 92.1092L300.506 83.018L303.532 83.977L304.13 82.1214Z" fill="white"></path><path d="M308.003 85.5591L313.146 87.5392L313.819 85.7957L306.695 83.0435L302.548 93.7536L309.734 96.5307L310.407 94.7748L305.226 92.7697L306.372 89.7809L310.768 91.487L311.403 89.8556L307.007 88.1494L308.003 85.5591Z" fill="white"></path><path d="M318.103 87.6514L316.621 90.8021C316.21 91.6863 315.836 92.4211 315.512 93.0189C315.189 93.6167 314.89 94.0899 314.603 94.4386C314.329 94.7998 314.055 95.0613 313.781 95.2232C313.507 95.3975 313.221 95.4972 312.922 95.5221C312.623 95.547 312.275 95.547 311.888 95.4847L311.751 97.5894C312.312 97.689 312.822 97.7139 313.283 97.6641C313.744 97.6143 314.192 97.4773 314.603 97.2282C315.027 96.9916 315.438 96.6304 315.836 96.1572C316.235 95.684 316.658 95.0737 317.094 94.3141C317.53 93.5668 317.991 92.6577 318.501 91.5867L319.112 90.2791L322.798 92.0101L318.738 100.641L320.668 101.55L325.55 91.1508L318.09 87.6514H318.103Z" fill="white"></path><path d="M333.059 102.023C333.009 101.375 332.773 100.765 332.349 100.205C331.938 99.6444 331.366 99.1587 330.643 98.7602L328.75 97.7016L330.83 93.9904L328.975 92.9443L323.358 102.97L327.069 105.049C327.667 105.386 328.24 105.61 328.775 105.734C329.323 105.859 329.821 105.871 330.295 105.784C330.768 105.697 331.191 105.498 331.577 105.199C331.963 104.9 332.3 104.501 332.586 103.991C332.96 103.331 333.122 102.671 333.059 102.023ZM330.706 102.982C330.407 103.505 330.033 103.804 329.56 103.866C329.087 103.928 328.551 103.791 327.953 103.455L326.11 102.422L327.854 99.3081L329.722 100.354C330.295 100.678 330.681 101.064 330.867 101.525C331.054 101.986 331.004 102.471 330.718 102.994L330.706 102.982Z" fill="white"></path><path d="M345.077 102.67L342.637 106.406L338.265 103.542L340.719 99.8059L338.938 98.6353L332.636 108.237L334.417 109.408L337.194 105.173L341.565 108.038L338.776 112.272L340.557 113.443L346.871 103.841L345.077 102.67Z" fill="white"></path><path d="M358.035 112.334L350.944 121.365L352.619 122.68L359.71 113.649L358.035 112.334Z" fill="white"></path><path d="M351.927 117.553C352.4 116.955 352.649 116.332 352.699 115.672C352.749 115.024 352.612 114.389 352.288 113.767C351.964 113.144 351.479 112.584 350.831 112.073L349.187 110.778L351.815 107.44L350.134 106.12L343.035 115.161L346.323 117.739C346.858 118.163 347.394 118.474 347.905 118.686C348.428 118.885 348.913 118.985 349.399 118.972C349.885 118.96 350.333 118.835 350.756 118.599C351.18 118.362 351.578 118.013 351.94 117.565L351.927 117.553ZM350.221 116.27C349.847 116.743 349.424 116.967 348.951 116.955C348.477 116.942 347.967 116.731 347.431 116.307L345.825 115.049L348.029 112.247L349.648 113.518C350.159 113.929 350.482 114.364 350.607 114.85C350.732 115.336 350.607 115.809 350.233 116.282L350.221 116.27Z" fill="white"></path><path d="M367.083 118.574C367.531 118.998 368.017 119.272 368.552 119.408C369.075 119.545 369.586 119.533 370.084 119.384C370.582 119.234 371.031 118.948 371.404 118.512L370.134 117.329C369.835 117.69 369.486 117.889 369.113 117.927C368.727 117.964 368.378 117.827 368.054 117.528C367.73 117.229 367.568 116.88 367.581 116.494C367.581 116.108 367.768 115.747 368.092 115.423L366.821 114.24C366.41 114.651 366.149 115.124 366.037 115.623C365.925 116.133 365.95 116.631 366.124 117.142C366.298 117.653 366.622 118.126 367.083 118.562V118.574Z" fill="white"></path><path d="M368.179 121.376L358.752 123.605L364.231 117.714L362.687 116.27L354.854 124.676L356.373 126.083L365.85 123.829L360.321 129.757L361.877 131.201L369.698 122.795L368.179 121.376Z" fill="white"></path><path d="M379.499 133.319L374.767 134.041L376.137 129.533L374.43 127.615L372.562 133.954L365.738 135.124L367.394 136.992L372.326 136.096L370.931 140.965L372.65 142.883L374.505 136.22L381.155 135.174L379.499 133.319Z" fill="white"></path><path d="M385.19 149.695C385.85 149.184 386.386 148.586 386.772 147.901C387.158 147.217 387.407 146.494 387.507 145.722C387.606 144.95 387.557 144.19 387.345 143.418C387.133 142.646 386.772 141.911 386.249 141.226C385.713 140.541 385.116 139.993 384.418 139.582C383.733 139.171 382.999 138.922 382.239 138.823C381.479 138.723 380.72 138.773 379.96 138.972C379.2 139.171 378.478 139.533 377.805 140.056C377.133 140.566 376.597 141.177 376.211 141.849C375.813 142.534 375.576 143.256 375.477 144.016C375.377 144.776 375.439 145.548 375.651 146.32C375.863 147.092 376.236 147.827 376.759 148.512C377.282 149.197 377.893 149.745 378.59 150.143C379.275 150.542 380.01 150.791 380.769 150.903C381.529 151.002 382.301 150.965 383.061 150.753C383.82 150.554 384.543 150.193 385.215 149.682L385.19 149.695ZM380.869 148.811C380.383 148.748 379.922 148.586 379.487 148.325C379.051 148.063 378.665 147.727 378.341 147.291C377.893 146.718 377.631 146.096 377.531 145.436C377.444 144.776 377.531 144.128 377.793 143.505C378.067 142.87 378.515 142.31 379.15 141.824C379.636 141.45 380.122 141.201 380.632 141.052C381.143 140.915 381.629 140.865 382.127 140.927C382.612 140.99 383.073 141.152 383.509 141.401C383.945 141.662 384.319 141.998 384.655 142.434C385.091 143.007 385.365 143.617 385.452 144.277C385.539 144.937 385.452 145.585 385.19 146.22C384.929 146.855 384.468 147.416 383.833 147.901C383.36 148.263 382.862 148.524 382.363 148.674C381.865 148.823 381.355 148.86 380.869 148.798V148.811Z" fill="white"></path><path d="M387.706 154.776C388.466 154.365 389.35 153.842 390.334 153.195L391.542 152.41L393.771 155.823L385.788 161.028L386.959 162.821L396.586 156.545L392.09 149.646L389.176 151.551C388.366 152.086 387.656 152.522 387.071 152.846C386.486 153.182 385.975 153.431 385.552 153.581C385.128 153.73 384.755 153.817 384.431 153.817C384.107 153.817 383.808 153.755 383.547 153.618C383.273 153.481 382.986 153.294 382.687 153.045L381.467 154.751C381.89 155.125 382.314 155.424 382.725 155.623C383.136 155.823 383.596 155.935 384.082 155.947C384.568 155.959 385.103 155.872 385.689 155.686C386.286 155.499 386.959 155.2 387.731 154.789L387.706 154.776Z" fill="white"></path><path d="M394.83 172.872L403.199 168.289L399.201 160.979L396.225 162.61C395.191 163.183 394.319 163.619 393.609 163.918C392.899 164.216 392.314 164.403 391.828 164.478C391.343 164.54 390.932 164.49 390.571 164.329C390.222 164.167 389.873 163.893 389.537 163.519L385.402 165.786L386.374 167.554L388.927 166.159L393.036 173.656L390.483 175.051L391.455 176.82L395.726 174.478L394.842 172.872H394.83ZM391.679 166.471C392.351 166.433 393.149 166.234 394.045 165.898C394.942 165.561 396 165.063 397.196 164.403L398.466 163.706L400.471 167.367L393.821 171.004L391.343 166.471C391.455 166.471 391.567 166.471 391.691 166.471H391.679Z" fill="white"></path><path d="M408.404 179.36L398.852 177.766L406.187 174.453L405.315 172.523L394.842 177.243L395.701 179.123L405.315 180.717L397.918 184.055L398.79 185.985L409.263 181.253L408.404 179.36Z" fill="white"></path><path d="M413.236 191.751L409.039 193.283L407.259 188.376L411.443 186.857L410.721 184.852L399.923 188.774L400.658 190.779L405.415 189.048L407.209 193.955L402.439 195.686L403.174 197.691L413.959 193.756L413.236 191.751Z" fill="white"></path><path d="M415.079 197.368L404.07 200.619L404.668 202.661L413.809 199.959L415.104 204.33L416.972 203.769L415.079 197.368Z" fill="white"></path><path d="M81.2593 297.519L92.2558 294.219L92.8785 296.299L81.882 299.599L81.2593 297.519Z" fill="white"></path><path d="M83.0403 303.422L93.8251 299.462L94.5474 301.43L89.0305 309.35L96.4529 306.623L97.1752 308.603L86.3903 312.563L85.668 310.595L91.2721 302.638L83.7501 305.402L83.0278 303.422H83.0403Z" fill="white"></path><path d="M88.9058 318.304L97.5859 314.369L96.2534 311.43L98.0343 310.621L101.596 318.479L99.8151 319.288L98.4826 316.349L89.8024 320.285L88.9058 318.304Z" fill="white"></path><path d="M92.4678 325.864L102.593 320.434L106.254 327.271L104.61 328.155L101.97 323.224L99.5165 324.531L101.783 328.753L100.239 329.575L97.9723 325.353L95.1453 326.86L97.8104 331.842L96.1416 332.738L92.4429 325.839L92.4678 325.864Z" fill="white"></path><path d="M97.9971 335.914L107.711 329.787L110.127 333.61C110.575 334.307 110.837 334.992 110.924 335.652C111.011 336.312 110.924 336.923 110.675 337.483C110.413 338.043 109.99 338.504 109.392 338.89C108.906 339.189 108.421 339.363 107.935 339.388C107.437 339.413 106.964 339.326 106.503 339.127C106.042 338.928 105.606 338.616 105.22 338.218L102.904 343.685L101.509 341.481L103.701 336.524L102.954 335.341L99.1553 337.744L97.9971 335.914ZM104.436 334.407L105.519 336.126C105.893 336.711 106.304 337.097 106.752 337.271C107.2 337.446 107.661 337.383 108.134 337.097C108.62 336.786 108.894 336.412 108.956 335.951C109.019 335.49 108.869 334.967 108.495 334.382L107.35 332.576L104.423 334.419L104.436 334.407Z" fill="white"></path><path d="M104.722 346.313L113.925 339.451L115.183 341.132L112.144 350.298L118.483 345.566L119.741 347.26L110.538 354.122L109.28 352.44L112.393 343.225L105.979 348.007L104.722 346.313Z" fill="white"></path><path d="M112.281 356.326L123.876 352.116L125.47 353.934L119.841 364.943L118.234 363.1L119.542 360.634L116.453 357.11L113.863 358.106L112.294 356.313L112.281 356.326ZM118.147 356.326L120.526 359.04L122.817 354.594L118.147 356.326Z" fill="white"></path><path d="M122.73 367.82L129.48 361.095L127.201 358.804L128.583 357.421L134.673 363.536L133.291 364.918L131.012 362.627L124.262 369.352L122.73 367.808V367.82Z" fill="white"></path><path d="M128.658 373.561L136.391 365.067L137.998 366.524L130.264 375.018L128.658 373.561Z" fill="white"></path><path d="M137.313 381.345C136.628 380.797 136.08 380.162 135.682 379.452C135.283 378.742 135.034 378.007 134.947 377.235C134.847 376.463 134.909 375.703 135.134 374.944C135.345 374.184 135.731 373.474 136.254 372.814C136.79 372.154 137.4 371.631 138.098 371.257C138.795 370.884 139.53 370.659 140.302 370.585C141.074 370.51 141.846 370.585 142.618 370.834C143.39 371.07 144.125 371.469 144.81 372.017C145.495 372.565 146.031 373.2 146.429 373.91C146.828 374.62 147.064 375.367 147.151 376.139C147.239 376.911 147.176 377.683 146.965 378.443C146.753 379.203 146.379 379.913 145.856 380.56C145.321 381.22 144.711 381.731 144.013 382.104C143.316 382.478 142.581 382.702 141.809 382.777C141.037 382.852 140.265 382.777 139.492 382.54C138.72 382.304 137.986 381.918 137.301 381.357L137.313 381.345ZM138.571 379.776C138.994 380.124 139.455 380.373 139.941 380.523C140.426 380.672 140.925 380.722 141.41 380.672C141.908 380.622 142.382 380.473 142.842 380.211C143.303 379.95 143.727 379.589 144.1 379.116C144.611 378.493 144.91 377.833 145.009 377.16C145.109 376.488 145.034 375.828 144.785 375.205C144.536 374.582 144.125 374.034 143.552 373.574C143.116 373.225 142.656 372.976 142.17 372.826C141.684 372.677 141.199 372.627 140.7 372.677C140.202 372.727 139.729 372.876 139.268 373.138C138.807 373.399 138.384 373.76 138.01 374.234C137.512 374.856 137.201 375.516 137.089 376.189C136.977 376.861 137.052 377.521 137.313 378.144C137.562 378.767 137.986 379.315 138.558 379.776H138.571Z" fill="white"></path><path d="M145.072 387.011L151.498 377.484L153.241 378.655L153.403 388.306L157.824 381.743L159.568 382.926L153.142 392.453L151.398 391.283L151.286 381.556L146.815 388.194L145.072 387.011Z" fill="white"></path><path d="M155.496 393.948L165.048 386.165L167.152 387.36L165.471 399.602L163.341 398.394L163.765 395.642L159.68 393.325L157.563 395.119L155.496 393.948ZM161.037 392.018L164.176 393.799L164.873 388.842L161.025 392.018H161.037Z" fill="white"></path><path d="M167.924 400.786L172.906 390.437L174.861 391.371L170.726 399.964L175.197 402.106L174.35 403.862L167.937 400.773L167.924 400.786Z" fill="white"></path><path d="M181.013 406.7L185.073 395.953L192.333 398.692L191.673 400.448L186.442 398.468L185.459 401.071L189.942 402.765L189.319 404.396L184.836 402.702L183.703 405.691L188.995 407.684L188.335 409.452L181.013 406.688V406.7Z" fill="white"></path><path d="M191.785 410.648L195.06 399.639L198.672 400.71C199.793 401.046 200.727 401.569 201.449 402.292C202.171 403.014 202.657 403.861 202.894 404.832C203.13 405.804 203.093 406.837 202.769 407.921C202.533 408.73 202.171 409.428 201.698 410.013C201.225 410.598 200.652 411.072 200.005 411.408C199.357 411.744 198.635 411.943 197.85 412.006C197.066 412.068 196.256 411.968 195.409 411.719L191.798 410.648H191.785ZM194.438 409.365L195.783 409.764C196.343 409.926 196.879 410.001 197.377 409.976C197.875 409.951 198.348 409.826 198.772 409.615C199.195 409.403 199.569 409.104 199.88 408.705C200.191 408.307 200.428 407.834 200.602 407.273C200.826 406.514 200.864 405.816 200.714 405.181C200.565 404.546 200.254 404.01 199.768 403.562C199.282 403.114 198.672 402.765 197.925 402.553L196.58 402.155L194.438 409.365Z" fill="white"></path><path d="M209.021 415.48C207.988 415.256 207.166 414.87 206.555 414.31C205.945 413.749 205.534 413.077 205.335 412.292C205.136 411.508 205.123 410.673 205.323 409.777L206.767 403.002L208.884 403.45L207.427 410.25C207.228 411.159 207.315 411.881 207.689 412.442C208.05 412.99 208.635 413.351 209.432 413.525C210.229 413.7 210.914 413.612 211.462 413.251C212.023 412.903 212.396 412.267 212.583 411.358L214.04 404.559L216.17 405.019L214.725 411.794C214.538 412.691 214.19 413.451 213.679 414.086C213.168 414.721 212.533 415.169 211.749 415.431C210.964 415.692 210.055 415.717 209.021 415.493V415.48Z" fill="white"></path><path d="M223.031 417.884C221.836 417.722 220.815 417.336 219.968 416.726C219.121 416.115 218.523 415.331 218.137 414.384C217.751 413.438 217.651 412.354 217.813 411.159C217.925 410.287 218.187 409.502 218.585 408.83C218.984 408.145 219.482 407.572 220.092 407.111C220.702 406.651 221.4 406.327 222.172 406.14C222.944 405.953 223.779 405.916 224.65 406.028C225.559 406.152 226.319 406.364 226.929 406.675C227.54 406.987 228.075 407.385 228.523 407.859L227.191 409.44C226.879 409.067 226.506 408.755 226.058 408.531C225.609 408.307 225.099 408.157 224.526 408.083C223.915 407.996 223.355 408.02 222.844 408.133C222.334 408.245 221.886 408.444 221.499 408.743C221.113 409.029 220.79 409.403 220.553 409.864C220.304 410.312 220.142 410.835 220.067 411.433C219.955 412.255 220.03 412.977 220.267 413.587C220.516 414.21 220.914 414.708 221.475 415.107C222.035 415.493 222.72 415.754 223.554 415.854C224.115 415.929 224.663 415.916 225.223 415.816C225.771 415.717 226.319 415.518 226.842 415.219L227.589 417.137C226.979 417.485 226.294 417.722 225.547 417.859C224.787 417.996 223.953 417.996 223.031 417.871V417.884Z" fill="white"></path><path d="M229.109 418.406L234.277 407.21L236.693 407.36L240.554 419.104L238.113 418.954L237.278 416.302L232.596 416.015L231.488 418.556L229.121 418.406H229.109ZM233.243 414.234L236.843 414.458L235.298 409.701L233.243 414.247V414.234Z" fill="white"></path><path d="M244.651 419.092L244.501 409.553L241.276 409.602L241.251 407.647L249.881 407.51L249.906 409.465L246.681 409.515L246.83 419.055L244.651 419.092Z" fill="white"></path><path d="M252.808 418.918L252.26 407.448L254.427 407.349L254.975 418.818L252.808 418.918Z" fill="white"></path><path d="M264.415 418.295C263.531 418.395 262.709 418.332 261.924 418.108C261.14 417.884 260.442 417.535 259.832 417.062C259.222 416.589 258.724 416.003 258.338 415.306C257.951 414.621 257.715 413.849 257.628 413.002C257.541 412.155 257.603 411.346 257.827 410.599C258.051 409.839 258.412 409.166 258.91 408.569C259.409 407.971 260.006 407.485 260.729 407.099C261.451 406.713 262.248 406.476 263.12 406.389C263.991 406.29 264.813 406.364 265.598 406.576C266.383 406.8 267.068 407.149 267.69 407.635C268.3 408.12 268.799 408.706 269.185 409.391C269.571 410.076 269.807 410.835 269.907 411.67C269.994 412.516 269.932 413.314 269.695 414.073C269.459 414.833 269.097 415.505 268.612 416.103C268.114 416.701 267.516 417.199 266.806 417.573C266.096 417.959 265.299 418.195 264.427 418.295H264.415ZM264.203 416.29C264.751 416.228 265.249 416.078 265.698 415.842C266.146 415.605 266.532 415.294 266.843 414.908C267.155 414.522 267.391 414.073 267.528 413.575C267.678 413.064 267.715 412.516 267.64 411.919C267.553 411.122 267.304 410.437 266.893 409.889C266.482 409.328 265.972 408.93 265.349 408.656C264.726 408.394 264.054 408.307 263.319 408.382C262.771 408.444 262.26 408.594 261.812 408.83C261.364 409.067 260.978 409.378 260.666 409.764C260.355 410.15 260.131 410.599 259.981 411.097C259.832 411.595 259.795 412.155 259.869 412.766C259.957 413.563 260.206 414.248 260.604 414.796C261.003 415.343 261.526 415.754 262.148 416.028C262.771 416.29 263.444 416.377 264.178 416.302L264.203 416.29Z" fill="white"></path><path d="M273.917 416.812L271.725 405.542L273.792 405.143L280.729 411.856L279.222 404.097L281.289 403.699L283.481 414.969L281.414 415.368L274.452 408.568L275.984 416.426L273.917 416.825V416.812Z" fill="white"></path><path d="M286.209 414.334L287.454 402.068L289.783 401.42L297.255 411.271L294.902 411.918L293.245 409.677L288.725 410.935L288.5 413.699L286.209 414.334ZM288.75 409.054L292.224 408.095L289.21 404.097L288.737 409.066L288.75 409.054Z" fill="white"></path><path d="M299.821 410.375L296.01 399.54L298.052 398.818L301.215 407.809L305.885 406.166L306.533 408.009L299.821 410.375Z" fill="white"></path><path d="M313.32 405.306L308.513 394.869L310.481 393.96L312.349 398.02L317.168 395.804L315.3 391.744L317.268 390.834L322.075 401.271L320.108 402.18L317.99 397.572L313.171 399.789L315.3 404.397L313.333 405.306H313.32Z" fill="white"></path><path d="M330.643 396.924C329.871 397.36 329.086 397.634 328.277 397.734C327.467 397.846 326.695 397.796 325.948 397.597C325.201 397.398 324.516 397.061 323.881 396.576C323.258 396.09 322.735 395.48 322.312 394.745C321.888 393.998 321.639 393.238 321.54 392.454C321.452 391.669 321.502 390.909 321.726 390.162C321.95 389.415 322.299 388.73 322.81 388.095C323.32 387.46 323.956 386.924 324.728 386.488C325.487 386.052 326.272 385.791 327.081 385.679C327.891 385.579 328.663 385.629 329.423 385.828C330.182 386.027 330.867 386.364 331.49 386.849C332.113 387.335 332.636 387.933 333.047 388.655C333.47 389.39 333.719 390.15 333.806 390.947C333.893 391.731 333.831 392.503 333.62 393.251C333.408 393.998 333.047 394.683 332.536 395.318C332.038 395.953 331.403 396.488 330.631 396.924H330.643ZM329.659 395.181C330.133 394.907 330.543 394.571 330.855 394.172C331.166 393.774 331.403 393.338 331.54 392.864C331.677 392.391 331.714 391.893 331.639 391.37C331.565 390.847 331.39 390.324 331.091 389.801C330.693 389.103 330.195 388.58 329.609 388.232C329.012 387.883 328.377 387.709 327.704 387.721C327.032 387.721 326.372 387.908 325.736 388.269C325.251 388.543 324.852 388.879 324.528 389.278C324.205 389.676 323.98 390.112 323.843 390.585C323.706 391.059 323.682 391.569 323.744 392.08C323.806 392.59 323.993 393.126 324.292 393.649C324.69 394.346 325.188 394.87 325.774 395.218C326.359 395.567 326.994 395.741 327.679 395.729C328.352 395.729 329.012 395.542 329.659 395.168V395.181Z" fill="white"></path><path d="M338.701 391.806L332.312 382.254L334.118 381.046L339.423 388.967L343.545 386.215L344.629 387.834L338.713 391.794L338.701 391.806Z" fill="white"></path><path d="M347.169 386.028L340.146 376.937L343.134 374.633C344.068 373.911 345.027 373.475 346.049 373.313C347.057 373.151 348.029 373.251 348.963 373.624C349.897 373.998 350.706 374.633 351.391 375.53C351.902 376.202 352.263 376.9 352.462 377.634C352.661 378.369 352.711 379.104 352.599 379.826C352.487 380.549 352.226 381.246 351.827 381.919C351.428 382.591 350.868 383.189 350.171 383.724L347.182 386.028H347.169ZM347.68 383.127L348.788 382.267C349.249 381.906 349.623 381.52 349.897 381.097C350.171 380.673 350.345 380.225 350.42 379.752C350.494 379.278 350.47 378.805 350.333 378.332C350.196 377.846 349.947 377.373 349.585 376.912C349.1 376.29 348.564 375.854 347.954 375.605C347.356 375.355 346.733 375.293 346.086 375.418C345.438 375.542 344.803 375.841 344.18 376.314L343.072 377.174L347.667 383.127H347.68Z" fill="white"></path><path d="M357.332 377.92L349.81 369.24L351.453 367.82L358.975 376.513L357.332 377.933V377.92Z" fill="white"></path><path d="M361.989 373.885L353.981 365.653L355.488 364.184L364.966 366.002L359.449 360.336L360.955 358.866L368.963 367.098L367.456 368.568L357.904 366.675L363.484 372.416L361.977 373.885H361.989Z" fill="white"></path><path d="M375.825 359.875C375.227 360.56 374.555 361.12 373.82 361.531C373.085 361.942 372.325 362.204 371.553 362.303C370.769 362.415 369.997 362.341 369.225 362.116C368.452 361.892 367.718 361.469 367.033 360.871C366.348 360.273 365.825 359.601 365.488 358.878C365.14 358.156 364.965 357.396 364.953 356.612C364.94 355.827 365.077 355.055 365.376 354.296C365.675 353.523 366.124 352.801 366.721 352.116C366.995 351.805 367.307 351.506 367.643 351.219C367.979 350.933 368.353 350.672 368.751 350.447C369.15 350.223 369.586 350.049 370.059 349.924L370.707 351.718C370.233 351.855 369.797 352.066 369.386 352.34C368.975 352.614 368.602 352.951 368.253 353.337C367.83 353.822 367.506 354.333 367.307 354.844C367.107 355.354 367.008 355.877 367.033 356.375C367.058 356.886 367.195 357.372 367.444 357.857C367.693 358.331 368.054 358.779 368.527 359.19C369.187 359.775 369.872 360.124 370.594 360.236C371.304 360.348 372.002 360.261 372.674 359.974C373.347 359.676 373.969 359.215 374.53 358.567C374.791 358.268 375.003 357.969 375.165 357.683C375.327 357.396 375.439 357.123 375.514 356.898L373.608 355.23L371.927 357.16L370.619 356.014L373.571 352.639L377.73 356.276C377.668 356.649 377.544 357.06 377.344 357.509C377.145 357.957 376.921 358.393 376.659 358.804C376.398 359.227 376.124 359.588 375.875 359.875H375.825Z" fill="white"></path><path d="M386.598 346.014C386.087 346.736 385.502 347.321 384.817 347.77C384.132 348.218 383.41 348.504 382.65 348.654C381.89 348.803 381.118 348.791 380.346 348.629C379.574 348.467 378.839 348.143 378.142 347.657C377.444 347.172 376.884 346.586 376.46 345.926C376.037 345.254 375.763 344.544 375.638 343.772C375.514 343 375.539 342.228 375.726 341.443C375.912 340.659 376.261 339.899 376.759 339.177C377.257 338.454 377.855 337.881 378.54 337.433C379.225 336.997 379.947 336.698 380.707 336.561C381.467 336.424 382.239 336.424 383.011 336.586C383.783 336.748 384.518 337.059 385.203 337.545C385.9 338.031 386.461 338.604 386.872 339.276C387.295 339.949 387.557 340.671 387.694 341.431C387.818 342.203 387.793 342.975 387.606 343.759C387.432 344.544 387.083 345.304 386.585 346.026L386.598 346.014ZM384.954 344.868C385.265 344.419 385.489 343.946 385.601 343.448C385.713 342.95 385.738 342.452 385.651 341.966C385.564 341.48 385.377 341.007 385.091 340.571C384.804 340.135 384.406 339.737 383.92 339.388C383.26 338.927 382.588 338.666 381.903 338.616C381.218 338.566 380.57 338.678 379.96 338.977C379.35 339.276 378.839 339.724 378.416 340.322C378.092 340.783 377.88 341.256 377.768 341.742C377.656 342.24 377.631 342.726 377.718 343.211C377.805 343.697 377.992 344.17 378.279 344.606C378.565 345.042 378.951 345.441 379.449 345.789C380.109 346.25 380.782 346.512 381.467 346.574C382.152 346.636 382.799 346.512 383.397 346.225C383.995 345.939 384.518 345.478 384.941 344.868H384.954Z" fill="white"></path><path d="M391.803 337.845L381.803 332.191L382.836 330.373L391.654 330.011L391.243 330.759L386.909 323.174L387.93 321.369L397.93 327.023L396.897 328.853L389.337 324.544L389.661 324.27L393.185 330.597L392.438 331.929L385.153 332.241L385.203 331.855L392.787 336.101L391.815 337.832L391.803 337.845Z" fill="white"></path><path d="M399.773 323.236L389.3 318.516L390.159 316.598L399.636 314.805L392.426 311.555L393.297 309.637L403.771 314.357L402.912 316.275L393.335 318.03L400.633 321.318L399.761 323.249L399.773 323.236Z" fill="white"></path><path d="M405.191 310.633L394.456 306.561L395.228 304.531L405.963 308.603L405.191 310.633Z" fill="white"></path><path d="M408.74 301.268C408.491 302.065 408.13 302.8 407.657 303.485C407.184 304.17 406.661 304.705 406.075 305.079L404.855 303.585C405.166 303.398 405.465 303.161 405.739 302.862C406.013 302.563 406.274 302.227 406.486 301.854C406.71 301.48 406.872 301.094 407.009 300.708C407.221 300.048 407.271 299.475 407.159 298.977C407.047 298.479 406.76 298.167 406.312 298.018C405.951 297.906 405.602 297.943 405.266 298.155C404.929 298.367 404.531 298.815 404.083 299.512L403.435 300.496C402.787 301.48 402.127 302.14 401.467 302.464C400.807 302.788 400.097 302.825 399.363 302.588C398.877 302.439 398.466 302.19 398.13 301.866C397.794 301.53 397.532 301.144 397.358 300.683C397.183 300.222 397.096 299.712 397.109 299.164C397.109 298.616 397.208 298.043 397.395 297.445C397.644 296.66 397.98 295.975 398.416 295.378C398.852 294.78 399.325 294.332 399.848 294.033L401.019 295.54C400.745 295.702 400.484 295.901 400.234 296.15C399.985 296.399 399.761 296.698 399.574 297.022C399.388 297.345 399.226 297.682 399.114 298.043C398.977 298.466 398.927 298.84 398.939 299.189C398.952 299.537 399.039 299.836 399.201 300.073C399.363 300.309 399.587 300.484 399.898 300.583C400.122 300.658 400.334 300.658 400.546 300.583C400.758 300.509 400.969 300.359 401.193 300.11C401.418 299.861 401.704 299.512 402.015 299.039L402.7 298.018C403.348 297.046 403.995 296.399 404.631 296.063C405.266 295.726 405.976 295.689 406.748 295.938C407.408 296.15 407.943 296.511 408.342 297.009C408.74 297.507 408.977 298.118 409.064 298.84C409.151 299.562 409.052 300.359 408.765 301.243L408.74 301.268Z" fill="white"></path><path d="M82.4299 275.999L81.3339 272.413C81.1222 271.827 81.0226 271.18 80.8856 270.569L80.4746 268.701C79.0051 261.528 78.6315 253.956 78.7436 246.409C78.8681 238.85 79.441 231.241 80.4248 223.694C80.7611 221.066 81.1471 218.389 81.5955 215.861C79.8893 218.165 78.233 220.693 76.6265 223.196C75.7049 220.331 74.8331 217.492 74.061 214.466C73.5629 217.28 73.1768 219.958 72.8281 222.698C71.8069 230.506 71.2091 238.364 71.0846 246.285C70.985 254.205 71.3461 262.201 72.9775 270.208L73.4383 272.313C73.6002 273.01 73.7123 273.708 73.9489 274.405L75.2317 278.577C75.406 276.971 75.5928 275.414 75.7921 273.895C75.8668 273.147 76.066 272.388 76.2279 271.64L76.7261 269.436L78.096 271.205C78.5568 271.777 78.9677 272.363 79.4908 272.898C80.4871 273.982 81.4709 275.003 82.4299 275.987V275.999Z" fill="white"></path><path d="M412.539 278.615L413.958 274.48C414.22 273.795 414.357 273.098 414.544 272.4L415.067 270.321C416.96 262.363 417.57 254.38 417.719 246.459C417.844 238.539 417.495 230.668 416.735 222.822C416.474 220.07 416.175 217.38 415.764 214.553C414.905 217.555 413.933 220.357 412.925 223.196C411.405 220.643 409.824 218.065 408.192 215.699C408.553 218.239 408.865 220.929 409.114 223.557C409.849 231.129 410.185 238.751 410.06 246.31C409.923 253.857 409.313 261.416 407.607 268.54L407.134 270.395C406.972 271.006 406.847 271.653 406.623 272.226L405.415 275.775C406.411 274.829 407.42 273.833 408.454 272.786C408.989 272.276 409.425 271.703 409.911 271.143L411.331 269.424L411.754 271.641C411.878 272.388 412.065 273.148 412.115 273.907C412.277 275.427 412.414 276.996 412.526 278.602L412.539 278.615Z" fill="white"></path><path d="M486.562 196.596C486.562 190.591 487.675 184.993 489.899 179.803C492.123 174.612 495.163 170.127 499.019 166.345C502.949 162.49 507.546 159.487 512.81 157.337C518.148 155.112 523.895 154 530.049 154C535.906 154 541.393 155.112 546.509 157.337C551.625 159.561 556.074 162.601 559.855 166.456C563.711 170.312 566.713 174.835 568.864 180.025C571.088 185.141 572.2 190.628 572.2 196.485C572.2 202.491 571.088 208.089 568.864 213.279C566.713 218.469 563.748 222.992 559.966 226.848C556.185 230.629 551.699 233.632 546.509 235.856C541.393 238.006 535.832 239.082 529.826 239.082C523.82 239.082 518.185 238.006 512.921 235.856C507.657 233.632 503.06 230.629 499.13 226.848C495.275 222.992 492.198 218.469 489.899 213.279C487.675 208.089 486.562 202.528 486.562 196.596ZM501.911 196.485C501.911 200.415 502.615 204.085 504.024 207.496C505.507 210.906 507.471 213.872 509.918 216.393C512.439 218.84 515.405 220.805 518.816 222.288C522.226 223.696 525.859 224.401 529.715 224.401C533.645 224.401 537.241 223.696 540.503 222.288C543.84 220.879 546.694 218.951 549.067 216.504C551.514 214.058 553.404 211.166 554.739 207.829C556.148 204.419 556.852 200.711 556.852 196.708C556.852 192.704 556.148 188.997 554.739 185.586C553.33 182.101 551.402 179.135 548.956 176.688C546.509 174.167 543.58 172.203 540.169 170.794C536.759 169.385 533.052 168.681 529.048 168.681C525.266 168.681 521.707 169.422 518.371 170.905C515.108 172.314 512.254 174.279 509.807 176.8C507.36 179.321 505.432 182.286 504.024 185.697C502.615 189.034 501.911 192.63 501.911 196.485Z" fill="#1C3D77"></path><path d="M584.078 155.446H604.987L627.119 217.728L649.029 155.446H669.938V237.636H654.701V176.021L633.236 237.636H620.78L599.315 176.021V237.636H584.078V155.446Z" fill="#1C3D77"></path><path d="M685.738 155.446H703.088L737.12 215.281V155.446H752.357V237.636H735.341L700.975 177.912V237.636H685.738V155.446Z" fill="#1C3D77"></path><path d="M768.174 155.446H783.411V237.636H768.174V155.446Z" fill="#1C3D77"></path><path d="M809.357 214.169C810.025 220.99 813.732 224.401 820.479 224.401C823.816 224.401 826.485 223.474 828.487 221.62C830.563 219.767 831.601 217.357 831.601 214.391C831.601 211.944 831.008 209.943 829.821 208.385C828.635 206.754 827.152 205.42 825.373 204.382C823.593 203.344 821.628 202.491 819.478 201.824C817.402 201.082 815.437 200.378 813.584 199.711C808.023 197.634 803.759 194.706 800.794 190.924C797.902 187.069 796.456 182.546 796.456 177.356C796.456 174.093 797.049 171.053 798.236 168.236C799.496 165.418 801.201 162.972 803.352 160.895C805.576 158.745 808.134 157.077 811.026 155.891C813.917 154.63 817.031 154 820.368 154C823.853 154 827.041 154.556 829.933 155.668C832.824 156.78 835.308 158.375 837.384 160.451C839.534 162.453 841.24 164.899 842.5 167.791C843.761 170.683 844.502 173.871 844.725 177.356H828.932C828.709 174.538 827.856 172.388 826.374 170.905C824.891 169.422 822.852 168.681 820.257 168.681C817.736 168.681 815.697 169.459 814.14 171.016C812.583 172.573 811.804 174.575 811.804 177.022C811.804 178.283 811.989 179.432 812.36 180.47C812.805 181.434 813.546 182.323 814.585 183.139C815.623 183.955 817.031 184.77 818.811 185.586C820.59 186.401 822.815 187.254 825.484 188.144C832.898 190.665 838.274 193.89 841.61 197.82C845.021 201.675 846.726 206.643 846.726 212.723C846.726 216.43 846.059 219.915 844.725 223.177C843.39 226.366 841.536 229.146 839.164 231.519C836.791 233.891 834.011 235.745 830.822 237.08C827.634 238.414 824.186 239.082 820.479 239.082C816.698 239.082 813.213 238.488 810.025 237.302C806.836 236.116 804.056 234.448 801.683 232.297C799.311 230.073 797.42 227.441 796.011 224.401C794.602 221.287 793.75 217.876 793.453 214.169H809.357Z" fill="#1C3D77"></path><path d="M656.829 254.291H659.919L655.463 278.328H652.373L656.829 254.291Z" fill="#1C3D77"></path><path d="M663.176 260.471H666.104L665.714 262.585C666.646 261.696 667.589 261.056 668.543 260.666C669.519 260.254 670.571 260.048 671.698 260.048C672.609 260.048 673.433 260.178 674.17 260.438C674.908 260.677 675.547 261.035 676.089 261.512C676.631 261.989 677.043 262.574 677.325 263.268C677.629 263.962 677.781 264.764 677.781 265.675C677.781 266.109 677.748 266.586 677.683 267.106C677.64 267.627 677.553 268.223 677.423 268.895L675.699 278.328H672.642L674.333 269.155C674.528 268.136 674.626 267.291 674.626 266.618C674.626 265.404 674.279 264.472 673.585 263.821C672.891 263.171 671.926 262.845 670.69 262.845C669.714 262.845 668.879 263.008 668.185 263.333C667.492 263.659 666.906 264.103 666.429 264.667C665.974 265.209 665.594 265.849 665.291 266.586C665.009 267.323 664.792 268.115 664.64 268.96L662.916 278.328H659.859L663.176 260.471Z" fill="#1C3D77"></path><path d="M684.105 263.236H680.82L681.34 260.471H684.593L685.764 254.291H688.789L687.65 260.471H691.196L690.675 263.236H687.13L684.333 278.328H681.308L684.105 263.236Z" fill="#1C3D77"></path><path d="M708.667 272.636C708.19 273.546 707.594 274.381 706.878 275.14C706.184 275.899 705.404 276.55 704.536 277.092C703.691 277.612 702.791 278.024 701.837 278.328C700.883 278.61 699.918 278.751 698.942 278.751C697.771 278.751 696.687 278.566 695.689 278.198C694.713 277.807 693.879 277.276 693.185 276.604C692.491 275.91 691.949 275.108 691.558 274.197C691.168 273.265 690.973 272.245 690.973 271.14C690.973 269.665 691.277 268.266 691.884 266.944C692.513 265.599 693.337 264.418 694.356 263.398C695.396 262.379 696.589 261.566 697.934 260.959C699.3 260.352 700.72 260.048 702.194 260.048C703.3 260.048 704.319 260.232 705.252 260.601C706.206 260.948 707.019 261.447 707.691 262.097C708.385 262.748 708.927 263.528 709.318 264.439C709.708 265.35 709.903 266.358 709.903 267.464C709.903 268.462 709.762 269.492 709.48 270.554H694.095C694.03 271.335 694.117 272.061 694.356 272.733C694.594 273.384 694.941 273.948 695.396 274.425C695.874 274.902 696.448 275.281 697.12 275.563C697.814 275.823 698.562 275.953 699.365 275.953C700.579 275.953 701.717 275.661 702.78 275.075C703.842 274.49 704.731 273.677 705.447 272.636H708.667ZM707.008 267.854C706.943 266.271 706.434 265.046 705.48 264.179C704.547 263.29 703.279 262.845 701.674 262.845C700.893 262.845 700.145 262.965 699.43 263.203C698.714 263.442 698.042 263.778 697.413 264.212C696.806 264.645 696.264 265.176 695.787 265.805C695.31 266.412 694.919 267.095 694.616 267.854H707.008Z" fill="#1C3D77"></path><path d="M714.507 260.471H717.434L717.011 262.748C717.358 262.271 717.705 261.87 718.052 261.544C718.42 261.197 718.811 260.926 719.223 260.731C719.635 260.514 720.09 260.352 720.589 260.243C721.088 260.135 721.651 260.07 722.28 260.048L721.727 263.008C718.583 263.225 716.718 264.916 716.133 268.082L714.246 278.328H711.189L714.507 260.471Z" fill="#1C3D77"></path><path d="M724.607 260.471H727.535L727.144 262.585C728.077 261.696 729.02 261.056 729.974 260.666C730.95 260.254 732.002 260.048 733.129 260.048C734.04 260.048 734.864 260.178 735.601 260.438C736.338 260.677 736.978 261.035 737.52 261.512C738.062 261.989 738.474 262.574 738.756 263.268C739.06 263.962 739.211 264.764 739.211 265.675C739.211 266.109 739.179 266.586 739.114 267.106C739.071 267.627 738.984 268.223 738.854 268.895L737.13 278.328H734.072L735.764 269.155C735.959 268.136 736.056 267.291 736.056 266.618C736.056 265.404 735.71 264.472 735.016 263.821C734.322 263.171 733.357 262.845 732.121 262.845C731.145 262.845 730.31 263.008 729.616 263.333C728.922 263.659 728.337 264.103 727.86 264.667C727.405 265.209 727.025 265.849 726.722 266.586C726.44 267.323 726.223 268.115 726.071 268.96L724.347 278.328H721.29L724.607 260.471Z" fill="#1C3D77"></path><path d="M756.757 275.465C755.63 276.636 754.513 277.482 753.407 278.003C752.301 278.501 751.033 278.751 749.602 278.751C748.409 278.751 747.325 278.577 746.349 278.23C745.395 277.862 744.571 277.352 743.877 276.701C743.205 276.051 742.674 275.27 742.283 274.36C741.915 273.449 741.73 272.441 741.73 271.335C741.73 269.817 742.034 268.375 742.641 267.009C743.248 265.643 744.061 264.45 745.081 263.431C746.1 262.39 747.292 261.566 748.659 260.959C750.025 260.352 751.467 260.048 752.984 260.048C754.459 260.048 755.673 260.308 756.627 260.829C757.581 261.349 758.373 262.195 759.002 263.366L759.522 260.471H762.449L759.164 278.328H756.237L756.757 275.465ZM744.885 270.717C744.885 271.476 745.016 272.18 745.276 272.831C745.536 273.46 745.905 274.013 746.382 274.49C746.859 274.945 747.423 275.303 748.073 275.563C748.745 275.823 749.482 275.953 750.285 275.953C751.347 275.953 752.345 275.737 753.277 275.303C754.21 274.869 755.023 274.295 755.717 273.579C756.411 272.842 756.953 271.996 757.343 271.042C757.755 270.088 757.961 269.09 757.961 268.05C757.961 267.269 757.831 266.564 757.571 265.935C757.31 265.285 756.942 264.732 756.465 264.277C756.009 263.821 755.446 263.474 754.773 263.236C754.123 262.976 753.386 262.845 752.562 262.845C751.542 262.845 750.567 263.062 749.634 263.496C748.702 263.93 747.878 264.515 747.162 265.252C746.468 265.99 745.915 266.835 745.503 267.789C745.091 268.722 744.885 269.698 744.885 270.717Z" fill="#1C3D77"></path><path d="M767.58 263.236H764.295L764.815 260.471H768.068L769.239 254.291H772.264L771.125 260.471H774.671L774.15 263.236H770.605L767.808 278.328H764.783L767.58 263.236Z" fill="#1C3D77"></path><path d="M777.017 260.471H780.042L776.757 278.328H773.7L777.017 260.471ZM778.156 254.291H781.213L780.465 258.389H777.408L778.156 254.291Z" fill="#1C3D77"></path><path d="M781.404 271.205C781.404 269.687 781.718 268.256 782.347 266.911C782.976 265.567 783.811 264.385 784.852 263.366C785.914 262.347 787.129 261.544 788.495 260.959C789.882 260.352 791.324 260.048 792.821 260.048C793.97 260.048 795.011 260.243 795.943 260.634C796.897 261.002 797.71 261.523 798.383 262.195C799.055 262.845 799.575 263.637 799.944 264.569C800.312 265.48 800.497 266.488 800.497 267.594C800.497 269.069 800.193 270.478 799.586 271.823C799.001 273.167 798.198 274.36 797.179 275.4C796.16 276.42 794.978 277.233 793.634 277.84C792.289 278.447 790.869 278.751 789.373 278.751C788.18 278.751 787.096 278.566 786.12 278.198C785.144 277.807 784.31 277.287 783.616 276.636C782.922 275.964 782.38 275.173 781.989 274.262C781.599 273.33 781.404 272.31 781.404 271.205ZM784.526 270.717C784.526 271.476 784.646 272.18 784.884 272.831C785.144 273.46 785.502 274.013 785.958 274.49C786.435 274.945 786.998 275.303 787.649 275.563C788.3 275.823 789.026 275.953 789.828 275.953C790.891 275.953 791.877 275.737 792.788 275.303C793.699 274.847 794.49 274.262 795.162 273.546C795.856 272.809 796.398 271.964 796.789 271.009C797.179 270.055 797.374 269.069 797.374 268.05C797.374 266.51 796.897 265.263 795.943 264.309C795.011 263.333 793.731 262.845 792.105 262.845C791.064 262.845 790.078 263.073 789.145 263.528C788.234 263.962 787.432 264.548 786.738 265.285C786.066 266 785.524 266.835 785.112 267.789C784.722 268.722 784.526 269.698 784.526 270.717Z" fill="#1C3D77"></path><path d="M805.192 260.471H808.119L807.729 262.585C808.661 261.696 809.604 261.056 810.558 260.666C811.534 260.254 812.586 260.048 813.713 260.048C814.624 260.048 815.448 260.178 816.185 260.438C816.923 260.677 817.562 261.035 818.104 261.512C818.647 261.989 819.059 262.574 819.34 263.268C819.644 263.962 819.796 264.764 819.796 265.675C819.796 266.109 819.763 266.586 819.698 267.106C819.655 267.627 819.568 268.223 819.438 268.895L817.714 278.328H814.657L816.348 269.155C816.543 268.136 816.641 267.291 816.641 266.618C816.641 265.404 816.294 264.472 815.6 263.821C814.906 263.171 813.941 262.845 812.705 262.845C811.729 262.845 810.895 263.008 810.201 263.333C809.507 263.659 808.921 264.103 808.444 264.667C807.989 265.209 807.609 265.849 807.306 266.586C807.024 267.323 806.807 268.115 806.655 268.96L804.931 278.328H801.874L805.192 260.471Z" fill="#1C3D77"></path><path d="M837.342 275.465C836.214 276.636 835.098 277.482 833.992 278.003C832.886 278.501 831.617 278.751 830.186 278.751C828.993 278.751 827.909 278.577 826.933 278.23C825.979 277.862 825.155 277.352 824.462 276.701C823.789 276.051 823.258 275.27 822.868 274.36C822.499 273.449 822.315 272.441 822.315 271.335C822.315 269.817 822.618 268.375 823.226 267.009C823.833 265.643 824.646 264.45 825.665 263.431C826.684 262.39 827.877 261.566 829.243 260.959C830.609 260.352 832.051 260.048 833.569 260.048C835.043 260.048 836.258 260.308 837.212 260.829C838.166 261.349 838.957 262.195 839.586 263.366L840.106 260.471H843.034L839.749 278.328H836.821L837.342 275.465ZM825.47 270.717C825.47 271.476 825.6 272.18 825.86 272.831C826.12 273.46 826.489 274.013 826.966 274.49C827.443 274.945 828.007 275.303 828.657 275.563C829.33 275.823 830.067 275.953 830.869 275.953C831.932 275.953 832.929 275.737 833.862 275.303C834.794 274.869 835.607 274.295 836.301 273.579C836.995 272.842 837.537 271.996 837.927 271.042C838.339 270.088 838.545 269.09 838.545 268.05C838.545 267.269 838.415 266.564 838.155 265.935C837.895 265.285 837.526 264.732 837.049 264.277C836.594 263.821 836.03 263.474 835.358 263.236C834.707 262.976 833.97 262.845 833.146 262.845C832.127 262.845 831.151 263.062 830.219 263.496C829.286 263.93 828.462 264.515 827.747 265.252C827.053 265.99 826.5 266.835 826.088 267.789C825.676 268.722 825.47 269.698 825.47 270.717Z" fill="#1C3D77"></path><path d="M848.099 254.291H851.157L846.701 278.328H843.643L848.099 254.291Z" fill="#1C3D77"></path><path d="M536.159 289.865H549.235L548.714 292.727H538.729L537.298 300.371H546.925L546.405 303.233H536.777L535.314 311.04H545.299L544.779 313.902H531.703L536.159 289.865Z" fill="#1C3D77"></path><path d="M549.307 306.811C549.307 305.315 549.611 303.884 550.218 302.518C550.825 301.152 551.638 299.959 552.657 298.94C553.698 297.899 554.891 297.075 556.235 296.468C557.601 295.839 559.032 295.525 560.529 295.525C561.851 295.525 563.022 295.774 564.041 296.273C565.082 296.772 565.917 297.498 566.546 298.452L568.14 289.865H571.165L566.709 313.902H563.781L564.334 310.975C563.207 312.167 562.09 313.024 560.984 313.544C559.9 314.065 558.653 314.325 557.244 314.325C556.051 314.325 554.967 314.14 553.991 313.772C553.015 313.403 552.18 312.883 551.486 312.211C550.793 311.538 550.25 310.747 549.86 309.836C549.492 308.925 549.307 307.917 549.307 306.811ZM552.462 306.161C552.462 306.941 552.592 307.657 552.853 308.307C553.113 308.958 553.481 309.522 553.958 309.999C554.435 310.476 555.01 310.855 555.682 311.137C556.355 311.397 557.103 311.527 557.927 311.527C558.946 311.527 559.922 311.311 560.854 310.877C561.786 310.422 562.599 309.825 563.293 309.088C564.009 308.351 564.573 307.516 564.985 306.584C565.418 305.629 565.635 304.654 565.635 303.656C565.635 302.876 565.505 302.16 565.245 301.509C564.985 300.859 564.605 300.306 564.107 299.851C563.629 299.374 563.044 299.005 562.35 298.745C561.678 298.463 560.93 298.322 560.106 298.322C559.087 298.322 558.111 298.55 557.178 299.005C556.268 299.439 555.455 300.024 554.739 300.761C554.045 301.477 553.492 302.312 553.08 303.266C552.668 304.198 552.462 305.163 552.462 306.161Z" fill="#1C3D77"></path><path d="M583.906 311.495C583.017 312.492 582.106 313.219 581.174 313.674C580.242 314.108 579.125 314.325 577.824 314.325C575.851 314.325 574.354 313.815 573.335 312.796C572.316 311.777 571.807 310.378 571.807 308.6C571.807 308.145 571.828 307.679 571.872 307.202C571.937 306.703 572.023 306.182 572.132 305.64L573.888 296.045H576.946L575.222 305.38C575.027 306.312 574.929 307.136 574.929 307.852C574.929 309.045 575.254 309.955 575.905 310.584C576.555 311.213 577.499 311.527 578.735 311.527C579.754 311.527 580.621 311.354 581.337 311.007C582.052 310.638 582.649 310.151 583.126 309.543C583.624 308.936 584.015 308.242 584.296 307.462C584.6 306.659 584.828 305.825 584.98 304.957L586.638 296.045H589.696L586.378 313.902H583.451L583.906 311.495Z" fill="#1C3D77"></path><path d="M609.031 308.438C607.839 310.237 606.429 311.668 604.803 312.731C603.198 313.793 601.323 314.325 599.176 314.325C597.983 314.325 596.888 314.14 595.891 313.772C594.894 313.381 594.037 312.85 593.321 312.178C592.606 311.484 592.042 310.671 591.63 309.739C591.24 308.806 591.045 307.787 591.045 306.681C591.045 305.185 591.359 303.765 591.988 302.42C592.638 301.076 593.484 299.905 594.525 298.907C595.587 297.888 596.802 297.086 598.168 296.5C599.556 295.915 600.987 295.622 602.461 295.622C604.543 295.622 606.267 296.154 607.633 297.216C609.021 298.257 609.899 299.731 610.267 301.64H606.852C606.44 300.577 605.811 299.775 604.966 299.233C604.142 298.691 603.123 298.42 601.908 298.42C600.867 298.42 599.881 298.636 598.948 299.07C598.016 299.504 597.192 300.078 596.476 300.794C595.783 301.509 595.219 302.344 594.785 303.298C594.373 304.231 594.167 305.207 594.167 306.226C594.167 307.006 594.297 307.722 594.557 308.372C594.818 309.001 595.186 309.554 595.663 310.031C596.14 310.508 596.715 310.877 597.387 311.137C598.059 311.397 598.797 311.527 599.599 311.527C600.748 311.527 601.778 311.289 602.689 310.812C603.621 310.335 604.586 309.543 605.584 308.438H609.031Z" fill="#1C3D77"></path><path d="M626.844 311.04C625.717 312.211 624.6 313.056 623.494 313.577C622.388 314.075 621.12 314.325 619.689 314.325C618.496 314.325 617.412 314.151 616.436 313.804C615.482 313.436 614.658 312.926 613.964 312.276C613.292 311.625 612.761 310.844 612.37 309.934C612.002 309.023 611.817 308.015 611.817 306.909C611.817 305.391 612.121 303.949 612.728 302.583C613.335 301.217 614.148 300.024 615.167 299.005C616.187 297.964 617.379 297.14 618.745 296.533C620.111 295.926 621.553 295.622 623.071 295.622C624.546 295.622 625.76 295.882 626.714 296.403C627.668 296.923 628.46 297.769 629.089 298.94L629.609 296.045H632.536L629.251 313.902H626.324L626.844 311.04ZM614.972 306.291C614.972 307.05 615.102 307.754 615.363 308.405C615.623 309.034 615.991 309.587 616.468 310.064C616.946 310.519 617.509 310.877 618.16 311.137C618.832 311.397 619.569 311.527 620.372 311.527C621.434 311.527 622.432 311.311 623.364 310.877C624.296 310.443 625.11 309.869 625.803 309.153C626.497 308.416 627.039 307.57 627.43 306.616C627.842 305.662 628.048 304.664 628.048 303.624C628.048 302.843 627.918 302.138 627.657 301.509C627.397 300.859 627.029 300.306 626.552 299.851C626.096 299.395 625.532 299.048 624.86 298.81C624.21 298.55 623.472 298.42 622.648 298.42C621.629 298.42 620.653 298.636 619.721 299.07C618.789 299.504 617.965 300.089 617.249 300.826C616.555 301.564 616.002 302.409 615.59 303.363C615.178 304.296 614.972 305.272 614.972 306.291Z" fill="#1C3D77"></path><path d="M637.667 298.81H634.382L634.902 296.045H638.155L639.326 289.865H642.35L641.212 296.045H644.757L644.237 298.81H640.692L637.894 313.902H634.87L637.667 298.81Z" fill="#1C3D77"></path><path d="M647.104 296.045H650.129L646.844 313.902H643.786L647.104 296.045ZM648.243 289.865H651.3L650.552 293.963H647.494L648.243 289.865Z" fill="#1C3D77"></path><path d="M651.491 306.779C651.491 305.261 651.805 303.83 652.434 302.485C653.063 301.141 653.898 299.959 654.939 298.94C656.001 297.921 657.215 297.118 658.581 296.533C659.969 295.926 661.411 295.622 662.907 295.622C664.057 295.622 665.097 295.817 666.03 296.208C666.984 296.576 667.797 297.097 668.469 297.769C669.142 298.42 669.662 299.211 670.031 300.143C670.399 301.054 670.584 302.062 670.584 303.168C670.584 304.643 670.28 306.052 669.673 307.397C669.087 308.741 668.285 309.934 667.266 310.975C666.247 311.994 665.065 312.807 663.721 313.414C662.376 314.021 660.956 314.325 659.46 314.325C658.267 314.325 657.183 314.14 656.207 313.772C655.231 313.381 654.396 312.861 653.703 312.211C653.009 311.538 652.467 310.747 652.076 309.836C651.686 308.904 651.491 307.885 651.491 306.779ZM654.613 306.291C654.613 307.05 654.733 307.754 654.971 308.405C655.231 309.034 655.589 309.587 656.044 310.064C656.521 310.519 657.085 310.877 657.736 311.137C658.386 311.397 659.113 311.527 659.915 311.527C660.978 311.527 661.964 311.311 662.875 310.877C663.786 310.422 664.577 309.836 665.249 309.121C665.943 308.383 666.485 307.538 666.876 306.584C667.266 305.629 667.461 304.643 667.461 303.624C667.461 302.084 666.984 300.837 666.03 299.883C665.097 298.907 663.818 298.42 662.192 298.42C661.151 298.42 660.164 298.647 659.232 299.103C658.321 299.536 657.519 300.122 656.825 300.859C656.153 301.575 655.611 302.409 655.199 303.363C654.808 304.296 654.613 305.272 654.613 306.291Z" fill="#1C3D77"></path><path d="M675.278 296.045H678.206L677.815 298.159C678.748 297.27 679.691 296.631 680.645 296.24C681.621 295.828 682.673 295.622 683.8 295.622C684.711 295.622 685.535 295.752 686.272 296.013C687.009 296.251 687.649 296.609 688.191 297.086C688.733 297.563 689.145 298.148 689.427 298.842C689.731 299.536 689.883 300.339 689.883 301.249C689.883 301.683 689.85 302.16 689.785 302.68C689.742 303.201 689.655 303.797 689.525 304.469L687.801 313.902H684.743L686.435 304.73C686.63 303.71 686.728 302.865 686.728 302.193C686.728 300.978 686.381 300.046 685.687 299.395C684.993 298.745 684.028 298.42 682.792 298.42C681.816 298.42 680.981 298.582 680.287 298.907C679.594 299.233 679.008 299.677 678.531 300.241C678.076 300.783 677.696 301.423 677.393 302.16C677.111 302.897 676.894 303.689 676.742 304.534L675.018 313.902H671.961L675.278 296.045Z" fill="#1C3D77"></path><path d="M707.429 311.04C706.301 312.211 705.184 313.056 704.078 313.577C702.973 314.075 701.704 314.325 700.273 314.325C699.08 314.325 697.996 314.151 697.02 313.804C696.066 313.436 695.242 312.926 694.548 312.276C693.876 311.625 693.345 310.844 692.955 309.934C692.586 309.023 692.402 308.015 692.402 306.909C692.402 305.391 692.705 303.949 693.312 302.583C693.919 301.217 694.733 300.024 695.752 299.005C696.771 297.964 697.964 297.14 699.33 296.533C700.696 295.926 702.138 295.622 703.656 295.622C705.13 295.622 706.344 295.882 707.298 296.403C708.253 296.923 709.044 297.769 709.673 298.94L710.193 296.045H713.121L709.835 313.902H706.908L707.429 311.04ZM695.557 306.291C695.557 307.05 695.687 307.754 695.947 308.405C696.207 309.034 696.576 309.587 697.053 310.064C697.53 310.519 698.094 310.877 698.744 311.137C699.416 311.397 700.154 311.527 700.956 311.527C702.018 311.527 703.016 311.311 703.948 310.877C704.881 310.443 705.694 309.869 706.388 309.153C707.082 308.416 707.624 307.57 708.014 306.616C708.426 305.662 708.632 304.664 708.632 303.624C708.632 302.843 708.502 302.138 708.242 301.509C707.982 300.859 707.613 300.306 707.136 299.851C706.68 299.395 706.117 299.048 705.444 298.81C704.794 298.55 704.057 298.42 703.233 298.42C702.214 298.42 701.238 298.636 700.305 299.07C699.373 299.504 698.549 300.089 697.833 300.826C697.14 301.564 696.587 302.409 696.175 303.363C695.763 304.296 695.557 305.272 695.557 306.291Z" fill="#1C3D77"></path><path d="M718.186 289.865H721.243L716.787 313.902H713.73L718.186 289.865Z" fill="#1C3D77"></path><path d="M734.65 289.865H737.74L735.854 300.143H747.01L748.929 289.865H752.019L747.563 313.902H744.473L746.457 303.006H735.301L733.284 313.902H730.194L734.65 289.865Z" fill="#1C3D77"></path><path d="M752.658 306.779C752.658 305.261 752.972 303.83 753.601 302.485C754.23 301.141 755.065 299.959 756.106 298.94C757.168 297.921 758.382 297.118 759.749 296.533C761.136 295.926 762.578 295.622 764.075 295.622C765.224 295.622 766.265 295.817 767.197 296.208C768.151 296.576 768.964 297.097 769.636 297.769C770.309 298.42 770.829 299.211 771.198 300.143C771.566 301.054 771.751 302.062 771.751 303.168C771.751 304.643 771.447 306.052 770.84 307.397C770.254 308.741 769.452 309.934 768.433 310.975C767.414 311.994 766.232 312.807 764.888 313.414C763.543 314.021 762.123 314.325 760.627 314.325C759.434 314.325 758.35 314.14 757.374 313.772C756.398 313.381 755.564 312.861 754.87 312.211C754.176 311.538 753.634 310.747 753.243 309.836C752.853 308.904 752.658 307.885 752.658 306.779ZM755.78 306.291C755.78 307.05 755.9 307.754 756.138 308.405C756.398 309.034 756.756 309.587 757.212 310.064C757.689 310.519 758.252 310.877 758.903 311.137C759.553 311.397 760.28 311.527 761.082 311.527C762.145 311.527 763.131 311.311 764.042 310.877C764.953 310.422 765.744 309.836 766.416 309.121C767.11 308.383 767.652 307.538 768.043 306.584C768.433 305.629 768.628 304.643 768.628 303.624C768.628 302.084 768.151 300.837 767.197 299.883C766.265 298.907 764.985 298.42 763.359 298.42C762.318 298.42 761.332 298.647 760.399 299.103C759.488 299.536 758.686 300.122 757.992 300.859C757.32 301.575 756.778 302.409 756.366 303.363C755.976 304.296 755.78 305.272 755.78 306.291Z" fill="#1C3D77"></path><path d="M777.584 289.865H780.641L776.185 313.902H773.128L777.584 289.865Z" fill="#1C3D77"></path><path d="M780.832 306.811C780.832 305.315 781.136 303.884 781.743 302.518C782.35 301.152 783.163 299.959 784.182 298.94C785.223 297.899 786.416 297.075 787.76 296.468C789.126 295.839 790.558 295.525 792.054 295.525C793.376 295.525 794.547 295.774 795.567 296.273C796.607 296.772 797.442 297.498 798.071 298.452L799.665 289.865H802.69L798.234 313.902H795.306L795.859 310.975C794.732 312.167 793.615 313.024 792.509 313.544C791.425 314.065 790.178 314.325 788.769 314.325C787.576 314.325 786.492 314.14 785.516 313.772C784.54 313.403 783.705 312.883 783.011 312.211C782.318 311.538 781.776 310.747 781.385 309.836C781.017 308.925 780.832 307.917 780.832 306.811ZM783.987 306.161C783.987 306.941 784.117 307.657 784.378 308.307C784.638 308.958 785.006 309.522 785.483 309.999C785.961 310.476 786.535 310.855 787.207 311.137C787.88 311.397 788.628 311.527 789.452 311.527C790.471 311.527 791.447 311.311 792.379 310.877C793.311 310.422 794.125 309.825 794.818 309.088C795.534 308.351 796.098 307.516 796.51 306.584C796.943 305.629 797.16 304.654 797.16 303.656C797.16 302.876 797.03 302.16 796.77 301.509C796.51 300.859 796.13 300.306 795.632 299.851C795.155 299.374 794.569 299.005 793.875 298.745C793.203 298.463 792.455 298.322 791.631 298.322C790.612 298.322 789.636 298.55 788.704 299.005C787.793 299.439 786.98 300.024 786.264 300.761C785.57 301.477 785.017 302.312 784.605 303.266C784.193 304.198 783.987 305.163 783.987 306.161Z" fill="#1C3D77"></path><path d="M805.446 296.045H808.471L805.186 313.902H802.128L805.446 296.045ZM806.584 289.865H809.642L808.894 293.963H805.836L806.584 289.865Z" fill="#1C3D77"></path><path d="M812.402 296.045H815.329L814.939 298.159C815.871 297.27 816.815 296.631 817.769 296.24C818.745 295.828 819.796 295.622 820.924 295.622C821.834 295.622 822.659 295.752 823.396 296.013C824.133 296.251 824.773 296.609 825.315 297.086C825.857 297.563 826.269 298.148 826.551 298.842C826.854 299.536 827.006 300.339 827.006 301.249C827.006 301.683 826.974 302.16 826.909 302.68C826.865 303.201 826.778 303.797 826.648 304.469L824.924 313.902H821.867L823.558 304.73C823.754 303.71 823.851 302.865 823.851 302.193C823.851 300.978 823.504 300.046 822.81 299.395C822.116 298.745 821.151 298.42 819.915 298.42C818.94 298.42 818.105 298.582 817.411 298.907C816.717 299.233 816.132 299.677 815.655 300.241C815.199 300.783 814.82 301.423 814.516 302.16C814.234 302.897 814.017 303.689 813.866 304.534L812.142 313.902H809.084L812.402 296.045Z" fill="#1C3D77"></path><path d="M831.639 314.748C832.008 316.027 832.583 316.927 833.363 317.447C834.166 317.968 835.336 318.228 836.876 318.228C838.069 318.228 839.077 318.044 839.901 317.675C840.747 317.306 841.462 316.786 842.048 316.114C842.633 315.463 843.099 314.682 843.446 313.772C843.815 312.839 844.108 311.82 844.324 310.714C843.327 311.95 842.254 312.861 841.104 313.447C839.955 314.032 838.632 314.325 837.136 314.325C836.009 314.325 834.979 314.14 834.046 313.772C833.114 313.403 832.312 312.894 831.639 312.243C830.967 311.571 830.447 310.779 830.078 309.869C829.731 308.958 829.558 307.96 829.558 306.876C829.558 305.402 829.84 303.992 830.403 302.648C830.989 301.282 831.769 300.078 832.745 299.038C833.743 297.997 834.903 297.173 836.225 296.566C837.57 295.937 838.99 295.622 840.486 295.622C841.917 295.622 843.11 295.882 844.064 296.403C845.04 296.923 845.842 297.758 846.471 298.907L847.024 296.045H849.984L847.284 310.649C847.002 312.167 846.59 313.555 846.048 314.813C845.506 316.092 844.791 317.187 843.902 318.098C843.034 319.008 841.983 319.713 840.747 320.212C839.511 320.711 838.047 320.96 836.356 320.96C834.1 320.96 832.29 320.429 830.924 319.366C829.579 318.304 828.755 316.764 828.452 314.748H831.639ZM837.819 311.527C838.882 311.527 839.879 311.311 840.812 310.877C841.744 310.422 842.546 309.825 843.219 309.088C843.912 308.329 844.455 307.473 844.845 306.518C845.257 305.543 845.463 304.534 845.463 303.494C845.463 301.976 844.975 300.751 843.999 299.818C843.023 298.886 841.711 298.42 840.064 298.42C839.001 298.42 838.014 298.647 837.104 299.103C836.215 299.536 835.434 300.133 834.762 300.891C834.111 301.629 833.602 302.474 833.233 303.429C832.864 304.383 832.68 305.369 832.68 306.388C832.68 307.928 833.136 309.175 834.046 310.129C834.979 311.061 836.236 311.527 837.819 311.527Z" fill="#1C3D77"></path><defs><linearGradient id="paint0_linear_502_500" x1="200.615" y1="260.719" x2="208.835" y2="251.428" gradientUnits="userSpaceOnUse"><stop offset="0.01" stop-color="#1C3D77"></stop><stop offset="0.05" stop-color="#1A447F"></stop><stop offset="0.29" stop-color="#136AA5"></stop><stop offset="0.5" stop-color="#0E85C1"></stop><stop offset="0.69" stop-color="#0B96D2"></stop><stop offset="0.83" stop-color="#0A9CD8"></stop></linearGradient><linearGradient id="paint1_linear_502_500" x1="218.474" y1="265.962" x2="239.01" y2="242.748" gradientUnits="userSpaceOnUse"><stop offset="0.01" stop-color="#1C3D77"></stop><stop offset="0.05" stop-color="#1A447F"></stop><stop offset="0.29" stop-color="#136AA5"></stop><stop offset="0.5" stop-color="#0E85C1"></stop><stop offset="0.69" stop-color="#0B96D2"></stop><stop offset="0.83" stop-color="#0A9CD8"></stop></linearGradient><linearGradient id="paint2_linear_502_500" x1="247.777" y1="140.678" x2="247.865" y2="140.578" gradientUnits="userSpaceOnUse"><stop offset="0.01" stop-color="#1C3D77"></stop><stop offset="0.05" stop-color="#1A447F"></stop><stop offset="0.29" stop-color="#136AA5"></stop><stop offset="0.5" stop-color="#0E85C1"></stop><stop offset="0.69" stop-color="#0B96D2"></stop><stop offset="0.83" stop-color="#0A9CD8"></stop></linearGradient><linearGradient id="paint3_linear_502_500" x1="206.12" y1="315.079" x2="241.476" y2="275.116" gradientUnits="userSpaceOnUse"><stop offset="0.01" stop-color="#1C3D77"></stop><stop offset="0.05" stop-color="#1A447F"></stop><stop offset="0.29" stop-color="#136AA5"></stop><stop offset="0.5" stop-color="#0E85C1"></stop><stop offset="0.69" stop-color="#0B96D2"></stop><stop offset="0.83" stop-color="#0A9CD8"></stop></linearGradient><linearGradient id="paint4_linear_502_500" x1="193.791" y1="326.437" x2="211.662" y2="306.237" gradientUnits="userSpaceOnUse"><stop offset="0.01" stop-color="#1C3D77"></stop><stop offset="0.05" stop-color="#1A447F"></stop><stop offset="0.29" stop-color="#136AA5"></stop><stop offset="0.5" stop-color="#0E85C1"></stop><stop offset="0.69" stop-color="#0B96D2"></stop><stop offset="0.83" stop-color="#0A9CD8"></stop></linearGradient><linearGradient id="paint5_linear_502_500" x1="250.255" y1="236.696" x2="308.489" y2="170.853" gradientUnits="userSpaceOnUse"><stop offset="0.01" stop-color="#1C3D77"></stop><stop offset="0.05" stop-color="#1A447F"></stop><stop offset="0.29" stop-color="#136AA5"></stop><stop offset="0.5" stop-color="#0E85C1"></stop><stop offset="0.69" stop-color="#0B96D2"></stop><stop offset="0.83" stop-color="#0A9CD8"></stop></linearGradient><linearGradient id="paint6_linear_502_500" x1="284.976" y1="198.052" x2="322.499" y2="155.622" gradientUnits="userSpaceOnUse"><stop offset="0.01" stop-color="#1C3D77"></stop><stop offset="0.05" stop-color="#1A447F"></stop><stop offset="0.29" stop-color="#136AA5"></stop><stop offset="0.5" stop-color="#0E85C1"></stop><stop offset="0.69" stop-color="#0B96D2"></stop><stop offset="0.83" stop-color="#0A9CD8"></stop></linearGradient><linearGradient id="paint7_linear_502_500" x1="191.972" y1="327.981" x2="325.55" y2="196.994" gradientUnits="userSpaceOnUse"><stop offset="0.01" stop-color="#1C3D77"></stop><stop offset="0.05" stop-color="#1A447F"></stop><stop offset="0.29" stop-color="#136AA5"></stop><stop offset="0.5" stop-color="#0E85C1"></stop><stop offset="0.69" stop-color="#0B96D2"></stop><stop offset="0.83" stop-color="#0A9CD8"></stop></linearGradient><linearGradient id="paint8_linear_502_500" x1="191.362" y1="327.359" x2="324.94" y2="196.371" gradientUnits="userSpaceOnUse"><stop offset="0.01" stop-color="#1C3D77"></stop><stop offset="0.05" stop-color="#1A447F"></stop><stop offset="0.29" stop-color="#136AA5"></stop><stop offset="0.5" stop-color="#0E85C1"></stop><stop offset="0.69" stop-color="#0B96D2"></stop><stop offset="0.83" stop-color="#0A9CD8"></stop></linearGradient><linearGradient id="paint9_linear_502_500" x1="172.308" y1="307.931" x2="305.886" y2="176.943" gradientUnits="userSpaceOnUse"><stop offset="0.01" stop-color="#1C3D77"></stop><stop offset="0.05" stop-color="#1A447F"></stop><stop offset="0.29" stop-color="#136AA5"></stop><stop offset="0.5" stop-color="#0E85C1"></stop><stop offset="0.69" stop-color="#0B96D2"></stop><stop offset="0.83" stop-color="#0A9CD8"></stop></linearGradient><linearGradient id="paint10_linear_502_500" x1="171.972" y1="307.594" x2="305.549" y2="176.607" gradientUnits="userSpaceOnUse"><stop offset="0.01" stop-color="#1C3D77"></stop><stop offset="0.05" stop-color="#1A447F"></stop><stop offset="0.29" stop-color="#136AA5"></stop><stop offset="0.5" stop-color="#0E85C1"></stop><stop offset="0.69" stop-color="#0B96D2"></stop><stop offset="0.83" stop-color="#0A9CD8"></stop></linearGradient><linearGradient id="paint11_linear_502_500" x1="61.3335" y1="245.052" x2="429.563" y2="245.052" gradientUnits="userSpaceOnUse"><stop offset="0.17" stop-color="#0A9CD8"></stop><stop offset="0.99" stop-color="#1C3D77"></stop></linearGradient></defs></svg> 